<?xml version="1.0" encoding="utf-8"?>
<!-- Generator: Adobe Illustrator 24.1.2, SVG Export Plug-In . SVG Version: 6.00 Build 0)  -->
<svg version="1.1" id="Layer_1" xmlns="http://www.w3.org/2000/svg" xmlns:xlink="http://www.w3.org/1999/xlink" x="0px" y="0px"
	 viewBox="0 0 72 72" style="enable-background:new 0 0 72 72;" xml:space="preserve">
<style type="text/css">
	.st0{fill:#29ABE2;}
</style>
<g>
	<g>
		<path d="M25.21,28.63c-0.81-1.46-2.28-2.32-3.03-3.81c-0.75-1.49-1.02-3.51,0.09-4.91c1.22-1.53,3.23-1.92,4.88-2.76
			c0.83-0.43,1.62-0.94,2.4-1.45c0.89-0.58,1.85-1.05,2.69-1.69c0.79-0.6,1.44-1.06,2.34-1.49c0.71-0.34,1.87-1.1,2.69-1.01
			c0.57,0.06,1.68,0.85,2.13,1.21c0.73,0.57,1.38,1.12,2.22,1.54c0.89,0.44,1.73,0.89,2.57,1.41c0.84,0.52,1.25,0.74,1.86,1.11
			c0.66,0.41,1.43,0.58,1.92,1.25c0.47,0.63,0.49,1.66,0.63,2.4c0.19,0.98,0.19,1.9,0.08,2.89c-0.1,0.91-0.08,1.85-0.39,2.73
			c-0.37,1.04-0.86,1.81-1.67,2.57c-0.41,0.39-0.87,0.7-1.33,1.03c-0.31,0.22-0.93,0.82-1.3,0.86c-1.91,0.17-1.93,3.17,0,3
			c2.11-0.19,4.36-2.19,5.67-3.76c1.54-1.86,1.79-4.11,2.05-6.41c0.23-2.03-0.05-4.54-0.93-6.41c-0.92-1.96-3.18-2.69-4.88-3.73
			c-1.02-0.62-2.06-1.14-3.11-1.7c-1.08-0.58-1.96-1.45-3.04-2.06c-0.83-0.47-1.6-1.01-2.61-0.95c-1.18,0.07-2.43,0.64-3.48,1.15
			c-2.32,1.14-4.34,2.69-6.54,4.06c-1.1,0.68-2.19,1.12-3.37,1.62c-1.17,0.49-1.97,1.19-2.98,1.93c-2.03,1.49-2.63,4.53-2.02,6.86
			c0.3,1.15,0.76,2.37,1.49,3.33c0.74,0.97,1.78,1.64,2.37,2.71C23.55,31.84,26.14,30.33,25.21,28.63L25.21,28.63z"/>
	</g>
</g>
<g>
	<g>
		<path d="M32.01,34.47c-0.23-1.35-0.58-2.61-0.92-3.92c-0.17-0.64-0.39-1.23-0.61-1.85c-0.21-0.58-0.3-1.17-0.55-1.76
			c0.07,0.25,0.14,0.5,0.2,0.76c-0.05-0.9-0.18-1.74-0.14-2.65c0.05-0.92-0.2-1.81-0.15-2.72c0.01-0.29,0.04-0.67,0.16-0.95
			c0.04-0.11,0-0.1-0.1,0.02c0.19-0.09,0.37-0.18,0.54-0.28c0.75-0.44,1.46-0.89,2.24-1.29c1.64-0.83,3.53-1.14,5.35-1.3
			c0.75-0.07,1.54,0,2.21,0.31c0.63,0.29,1.13,0.31,1.5,0.93c0.36,0.59,0.42,0.9,0.24,1.56c-0.24,0.89-0.4,1.81-0.64,2.7
			c-0.23,0.84-0.72,1.59-0.99,2.42c-0.27,0.83-0.55,1.55-0.98,2.32c-0.35,0.62-0.63,1.34-1.14,1.79c-0.65,0.56-1.25,1.14-1.88,1.74
			c-1.14,1.09-2.55,2.05-2.8,3.73c-0.12,0.8,0.2,1.61,1.05,1.85c0.71,0.19,1.72-0.24,1.85-1.05c0.1-0.67,0.53-1.08,1.01-1.53
			c0.62-0.58,1.24-1.12,1.83-1.74c0.5-0.53,1.15-0.81,1.59-1.41c0.46-0.62,0.79-1.33,1.17-2.01c0.41-0.72,0.78-1.47,1.03-2.26
			c0.27-0.84,0.62-1.6,0.95-2.42c0.3-0.76,0.38-1.59,0.58-2.38c0.2-0.81,0.5-1.59,0.52-2.44c0.03-1.43-0.98-3.11-2.16-3.89
			c-1.35-0.89-3.16-1.32-4.76-1.25c-1.65,0.08-3.5,0.38-5.07,0.9c-1.61,0.54-2.98,1.45-4.45,2.26c-1.62,0.89-1.97,2.79-1.78,4.53
			c0.21,1.95-0.12,3.91,0.66,5.76c-0.07-0.25-0.14-0.5-0.2-0.76c0.05,1.2,0.65,2.3,0.94,3.46c0.31,1.21,0.62,2.36,0.83,3.61
			C29.44,37.17,32.33,36.36,32.01,34.47L32.01,34.47z"/>
	</g>
</g>
<g>
	<g>
		<path d="M29.33,35.65c-0.01,0.07-0.01,0.15-0.01,0.23c0.01,0.19,0.03,0.39,0.08,0.58c0.11,0.37,0.28,0.64,0.52,0.93
			c0.32,0.38,0.78,0.59,1.23,0.76c0.28,0.1,0.57,0.14,0.86,0.21c0.51,0.12,1.02,0.23,1.55,0.24c0.38,0,0.79-0.17,1.06-0.44
			c0.26-0.26,0.46-0.69,0.44-1.06c-0.02-0.39-0.14-0.79-0.44-1.06c-0.29-0.27-0.65-0.44-1.06-0.44c-0.13,0-0.27-0.01-0.4-0.03
			c0.13,0.02,0.27,0.04,0.4,0.05c-0.34-0.05-0.68-0.15-1.02-0.21c-0.23-0.04-0.46-0.1-0.68-0.19c0.12,0.05,0.24,0.1,0.36,0.15
			c-0.11-0.05-0.22-0.11-0.32-0.18c0.1,0.08,0.2,0.16,0.3,0.23c-0.06-0.05-0.12-0.1-0.17-0.17c0.08,0.1,0.16,0.2,0.23,0.3
			c-0.04-0.05-0.06-0.1-0.09-0.15c0.05,0.12,0.1,0.24,0.15,0.36c-0.03-0.07-0.05-0.14-0.06-0.21c0.02,0.13,0.04,0.27,0.05,0.4
			c-0.01-0.1-0.01-0.19,0-0.29c0.04-0.35-0.2-0.82-0.44-1.06c-0.26-0.26-0.69-0.46-1.06-0.44c-0.39,0.02-0.79,0.14-1.06,0.44
			c-0.08,0.1-0.16,0.2-0.23,0.3C29.4,35.13,29.33,35.38,29.33,35.65L29.33,35.65z"/>
	</g>
</g>
<g>
	<g>
		<path d="M21.68,29.91c-0.13,0.76-1.17,1.56-1.62,2.21c-0.63,0.89-1.18,1.82-1.78,2.74c-0.62,0.94-0.94,2.04-1.56,2.98
			c-0.72,1.1-1.25,2.11-1.71,3.33c-0.16,0.43-0.42,0.79-0.51,1.25c-0.12,0.59-0.08,1.3-0.06,1.9c0.04,1.21,0.65,1.87,1.57,2.54
			c0.94,0.69,2.11,1.12,2.96,1.91c1.02,0.95,1.82,2.09,2.9,2.99c0.89,0.74,1.88,1.29,2.81,1.97c0.98,0.72,1.88,1.52,2.9,2.19
			c0.86,0.57,1.72,1.31,2.64,1.75c1.09,0.52,2.41,0.21,3.41-0.37c2.17-1.27,3.94-3.21,5.44-5.2c0.89-1.18,2.81-2.7,1.83-4.35
			c-0.55-0.93-1.93-0.87-2.84-1.29c-1.22-0.57-2.38-1.09-3.5-1.86c-1.07-0.74-2.2-1.22-3.17-2.09c-0.54-0.49-1.06-1.05-1.66-1.47
			c-0.51-0.36-1.15-0.56-1.63-0.97c-1.47-1.23-3.6,0.88-2.12,2.12c0.46,0.38,0.93,0.69,1.46,0.97c0.65,0.35,1.13,0.83,1.68,1.33
			c1.03,0.92,2.03,1.5,3.2,2.21c0.63,0.38,1.19,0.88,1.82,1.25c0.55,0.32,1.15,0.49,1.72,0.75c1.12,0.51,2.12,0.97,3.3,1.21
			c-0.3-0.23-0.6-0.46-0.9-0.69c-0.53-0.7,0.24-0.96-0.35-0.39c-0.21,0.2-0.41,0.44-0.6,0.67c-0.57,0.68-1.07,1.4-1.66,2.07
			c-0.66,0.75-1.32,1.49-2.09,2.12c-0.43,0.35-0.94,0.79-1.45,1.03c-0.56,0.27-0.57,0.24-1.05-0.09c-3.14-2.19-6.52-4.21-9.12-7.04
			c-0.68-0.74-1.29-1.41-2.16-1.93c-0.64-0.39-2-0.81-2.41-1.48c0.05,0.08,0.07-0.95,0.06-0.91c0.07-0.46,0.29-0.78,0.46-1.23
			c0.32-0.86,0.64-1.58,1.17-2.34c0.63-0.91,0.99-1.91,1.53-2.87c0.39-0.7,0.92-1.31,1.33-1.99c0.4-0.67,0.75-1.32,1.29-1.9
			c0.61-0.66,1.21-1.3,1.37-2.22C24.9,28.81,22.01,28,21.68,29.91L21.68,29.91z"/>
	</g>
</g>
<g>
	<g>
		<path d="M47.46,30.57c0.08,1.36,0.72,2.58,1.11,3.87c0.36,1.18,0.76,2.36,1.15,3.53c0.41,1.26,1.13,2.35,1.6,3.58
			c0.43,1.13,1.05,2.14,1.56,3.23c1.09,2.28,2.96,4.01,4.41,6.06c0.77,1.08,1.72,1.66,2.79,2.4c0.48,0.33,0.73,0.73,1.15,1.14
			c0.28,0.27,0.63,0.49,0.95,0.7c0.15,0.1,0.77,0.69,0.48,0.24c0.08-0.61,0.16-1.21,0.23-1.82c-1.08,0.96-2.07,2.09-3.26,2.92
			c-0.54,0.37-1.14,0.57-1.7,0.89c-0.64,0.37-1.22,0.86-1.91,1.12c-0.75,0.29-1.54,0.44-2.3,0.72c-0.28,0.1-2,0.65-2.07,0.87
			c0.21,0.18,0.42,0.36,0.62,0.54c-0.01-0.15-0.01-0.29-0.01-0.44c0.03-0.26-0.04-0.57-0.07-0.83c-0.09-0.81-0.18-1.64-0.43-2.42
			c-0.46-1.45-1.42-2.68-1.88-4.13c-0.46-1.45-0.72-3.02-1.04-4.51c-0.33-1.51-0.78-2.99-1.23-4.47c-0.42-1.39-1.31-2.68-1.65-4.08
			c-0.46-1.87-3.36-1.08-2.89,0.8c0.38,1.53,1.32,2.93,1.75,4.46c0.5,1.77,1.01,3.51,1.45,5.29c0.45,1.81,0.68,3.5,1.51,5.2
			c0.42,0.86,0.95,1.68,1.19,2.61c0.21,0.78,0.24,1.58,0.3,2.38c0.11,1.61,0.92,2.77,2.69,2.57c0.78-0.09,1.44-0.46,2.16-0.77
			c0.88-0.37,1.8-0.59,2.7-0.89c0.86-0.29,1.55-0.75,2.32-1.22c0.66-0.4,1.38-0.66,2.01-1.1c1.42-0.99,2.58-2.24,3.87-3.39
			c0.47-0.42,0.58-1.29,0.23-1.82c-0.32-0.49-0.68-0.74-1.17-1.06c-0.6-0.39-0.88-0.74-1.35-1.26c-0.78-0.86-2.07-1.16-2.79-2.06
			c-0.74-0.93-1.35-2-2.16-2.89c-0.76-0.83-1.63-1.77-2.11-2.8c-0.47-1.01-1.05-1.96-1.47-2.99c-0.44-1.06-1.07-2.08-1.46-3.14
			c-0.42-1.17-0.68-2.39-1.13-3.55c-0.2-0.53-0.3-1.09-0.5-1.62c-0.23-0.62-0.63-1.2-0.66-1.87C50.35,28.65,47.35,28.63,47.46,30.57
			L47.46,30.57z"/>
	</g>
</g>
<g>
	<g>
		<path d="M19.93,51.3c0,2.28-0.03,4.58-0.16,6.86c-0.12,2.12-0.54,4.17-0.82,6.27c-0.24,1.78-1,3.37,1.02,4.42
			c0.89,0.46,1.92,0.71,2.87,1.01c1.1,0.35,2.04,0.73,3.2,0.88c4.48,0.59,9.03,0.58,13.55,0.59c2.02,0.01,4.06-0.15,6.05-0.46
			c0.97-0.15,2.07-0.31,3.06-0.34c0.98-0.03,1.93,0.04,2.89-0.17c1.06-0.23,2.11-0.63,3.07-1.13c0.88-0.45,1.76-0.69,2.19-1.65
			c0.37-0.83,0.69-1.63,0.61-2.56c-0.04-0.49-0.12-1.01-0.23-1.49c-0.13-0.58-0.56-1.01-0.71-1.55c-0.49-1.87-3.38-1.07-2.89,0.8
			c0.18,0.7,0.64,1.19,0.77,1.91c0.07,0.39,0.08,0.6-0.02,0.95c-0.05,0.17-0.14,0.32-0.21,0.49c-0.16,0.42-0.07,0.04,0.02,0
			c-1.31,0.65-2.75,1.38-4.25,1.4c-3.56,0.03-7.02,0.79-10.59,0.79c-3.73-0.01-7.5,0.01-11.22-0.34c-1.91-0.18-3.57-0.66-5.38-1.27
			c-0.28-0.09-0.96-0.5-1.23-0.44c0.18-0.04-0.32,0.77,0.02,0.34c0.07-0.09,0.12-0.33,0.15-0.44c0.19-0.65,0.22-1.34,0.33-2
			c0.68-4.27,0.9-8.54,0.9-12.86C22.93,49.37,19.93,49.37,19.93,51.3L19.93,51.3z"/>
	</g>
</g>
<g>
	<g>
		<path d="M29.77,64.63c0.58,0.52,1.22,0.73,1.97,0.85c0.78,0.12,1.53,0.36,2.3,0.5c0.81,0.15,1.62,0.19,2.43,0.27
			c0.82,0.08,1.63,0.27,2.46,0.27c1.7,0,3.37-0.08,5.06-0.14c0.89-0.03,1.73-0.31,2.61-0.39c0.91-0.07,1.52-0.23,2.24-0.83
			c0.62-0.52,0.54-1.58,0-2.12c-0.61-0.61-1.5-0.52-2.12,0c-0.08,0.04-0.02,0.03,0.18-0.05c-0.2,0-0.39,0-0.58,0.01
			c-0.34,0.03-0.67,0.11-1,0.18c-0.69,0.15-1.35,0.17-2.06,0.22c-1.44,0.1-2.87,0.11-4.32,0.11c-1.19,0-2.51-0.2-3.7-0.36
			c-0.69-0.1-1.36-0.27-2.04-0.44c-0.26-0.06-0.51-0.1-0.77-0.14c-0.15-0.02-0.3-0.05-0.46-0.08c-0.26-0.09-0.29-0.08-0.08,0.02
			C30.45,61.22,28.32,63.34,29.77,64.63L29.77,64.63z"/>
	</g>
</g>
<g>
	<g>
		<path d="M36.3,56.92c0.79,0.12,1.56,0.17,2.36,0.19c0.41,0.01,0.78,0.01,1.19-0.05c0.14-0.02,0.28-0.05,0.41-0.09
			c0.16-0.03,0.14-0.03-0.08,0.01c0.09,0,0.17-0.01,0.26-0.01c0.8-0.06,1.65-0.27,2.38-0.63c0.12-0.06,0.25-0.12,0.36-0.2
			c0.15-0.08,0.12-0.07-0.07,0.01c0.08-0.03,0.15-0.05,0.23-0.08c0.39-0.14,0.78-0.3,1.16-0.47c0.72-0.31,0.94-1.43,0.54-2.05
			c-0.48-0.75-1.28-0.87-2.05-0.54c0.35-0.15-0.15,0.05-0.21,0.08c-0.12,0.04-0.23,0.08-0.35,0.13c-0.32,0.12-0.65,0.24-0.94,0.43
			c-0.15,0.08-0.12,0.07,0.08-0.02c-0.08,0.03-0.16,0.06-0.25,0.08c-0.13,0.04-0.25,0.08-0.38,0.12c-0.15,0.04-0.3,0.08-0.45,0.11
			c-0.06,0.01-0.13,0.03-0.19,0.04c0.18-0.02,0.19-0.03,0.01-0.01c-0.36,0.01-0.71,0.07-1.05,0.16c-0.29,0.08,0.29,0.02-0.08-0.01
			c-0.17-0.01-0.35-0.01-0.53-0.01c-0.31-0.01-0.61,0-0.92-0.02c-0.13-0.01-0.26-0.02-0.38-0.03c-0.09-0.01-0.17-0.02-0.26-0.03
			c0.18,0.03,0.18,0.03,0,0c-0.77-0.12-1.65,0.19-1.85,1.05C35.09,55.79,35.47,56.8,36.3,56.92L36.3,56.92z"/>
	</g>
</g>
<g>
	<g>
		<path d="M34.61,33.24c0.38,0,0.74,0.04,1.12-0.07c0.34-0.1,0.61-0.26,0.86-0.5c0.09-0.09,0.17-0.19,0.28-0.27
			c-0.1,0.08-0.2,0.16-0.3,0.23c0.32-0.21,0.66-0.39,0.99-0.59c0.41-0.25,0.8-0.52,1.18-0.82c0.24-0.19,0.43-0.41,0.63-0.65
			c0.35-0.41,0.74-0.76,0.87-1.31c0.09-0.39,0.05-0.81-0.15-1.16c-0.18-0.31-0.54-0.61-0.9-0.69c-0.77-0.17-1.65,0.23-1.85,1.05
			c-0.01,0.04-0.02,0.07-0.03,0.11c0.05-0.12,0.1-0.24,0.15-0.36c-0.03,0.05-0.05,0.1-0.09,0.15c0.08-0.1,0.16-0.2,0.23-0.3
			c-0.15,0.19-0.33,0.36-0.49,0.55c-0.15,0.18-0.32,0.35-0.51,0.5c0.1-0.08,0.2-0.16,0.3-0.23c-0.38,0.28-0.79,0.54-1.2,0.79
			c-0.18,0.11-0.37,0.2-0.55,0.32c-0.27,0.17-0.48,0.39-0.72,0.6c0.1-0.08,0.2-0.16,0.3-0.23c-0.03,0.02-0.06,0.05-0.1,0.06
			c0.12-0.05,0.24-0.1,0.36-0.15c-0.06,0.02-0.11,0.04-0.17,0.05c0.13-0.02,0.27-0.04,0.4-0.05c-0.21,0.02-0.42,0-0.63-0.01
			c-0.78-0.01-1.54,0.7-1.5,1.5C33.15,32.56,33.77,33.23,34.61,33.24L34.61,33.24z"/>
	</g>
</g>
<g>
	<g>
		<path d="M39.24,25.22c0.02,0.45-0.39,1.36-0.59,1.93c-0.28,0.8-0.45,1.64-0.74,2.43c-0.28,0.75-0.63,1.48-0.87,2.24
			c-0.18,0.57-0.61,1.16-0.97,1.69c-0.1,0.14-0.21,0.28-0.32,0.42c-0.05,0.06-0.09,0.13-0.14,0.19c-0.06,0.08-0.06,0.09-0.02,0.02
			c0.64-0.21,0.76-0.28,0.37-0.21c-0.13,0-0.25,0.03-0.37,0.09c-0.25,0.08-0.44,0.2-0.65,0.36c-0.61,0.46-1.25,0.83-1.8,1.4
			c-0.38,0.4-0.8,0.83-0.95,1.37c-0.3,1.07,0.5,2.15,1.64,2.08c0.81-0.05,1.5-0.66,1.5-1.5c0-0.78-0.69-1.55-1.5-1.5
			c0.07,0.01,0.15,0.03,0.22,0.04c0.22,0.13,0.44,0.26,0.66,0.39c-0.01-0.01-0.02-0.03-0.03-0.04c0.15,0.35,0.29,0.71,0.44,1.06
			c-0.2,0.54-0.25,0.71-0.13,0.5c0.04-0.07,0.03-0.06-0.03,0.02c-0.15,0.06,0.01-0.01,0.07-0.08c0.16-0.17,0.32-0.34,0.48-0.5
			c0.22-0.21,0.48-0.31,0.74-0.49c0.06-0.04,0.5-0.42,0.52-0.41c-0.15-0.08-1.01,0.36-0.01,0.1c0.4-0.1,0.71-0.33,0.99-0.63
			c0.14-0.15,0.27-0.33,0.39-0.5c0.31-0.44-0.11,0.14,0.1-0.14c0.44-0.6,0.89-1.23,1.26-1.88c0.36-0.63,0.52-1.38,0.79-2.06
			c0.27-0.69,0.57-1.36,0.76-2.09c0.2-0.76,0.47-1.48,0.71-2.23c0.22-0.68,0.51-1.36,0.48-2.09c-0.04-0.81-0.66-1.5-1.5-1.5
			C39.95,23.72,39.2,24.4,39.24,25.22L39.24,25.22z"/>
	</g>
</g>
<g>
	<g>
		<path d="M37.67,30.04c0.01,0.09,0.01,0.19,0.01,0.28c0.02-0.17,0.02-0.16-0.02,0.02c-0.03,0.09-0.06,0.18-0.09,0.27
			c0.06-0.14,0.05-0.13-0.02,0.03c-0.21,0.37-0.4,0.75-0.53,1.15c-0.1,0.32-0.15,0.65-0.24,0.98c-0.02,0.08-0.04,0.16-0.07,0.24
			c0.08-0.17,0.08-0.18,0.01-0.03c-0.27,0.32,0.55-0.42,0.04-0.06c-0.31,0.22-0.48,0.39-0.7,0.7c-0.04,0.06-0.09,0.12-0.13,0.19
			c0.11-0.14,0.11-0.15-0.01-0.01c-0.33,0.28-0.62,0.62-0.86,0.98c-0.25,0.38-0.42,0.8-0.59,1.22c-0.02,0.05-0.24,0.57-0.12,0.29
			c-0.06,0.13-0.12,0.26-0.19,0.38c-0.07,0.12-0.14,0.23-0.22,0.35c0.2-0.28-0.14,0.13-0.18,0.18c-0.13,0.11-0.12,0.11,0.03-0.01
			c-0.15,0.09-0.12,0.08,0.09-0.02c0.27-0.07,0.53-0.03,0.79,0.11c0.2,0.17,0.24,0.2,0.13,0.09c0.3,0.33,0.06,0.06,0-0.06
			c-0.05-0.11-0.1-0.22-0.15-0.33c-0.14-0.31-0.28-0.56-0.52-0.83c-0.03-0.04-0.31-0.26-0.3-0.3c0.08,0.09,0.14,0.19,0.17,0.31
			c0.03,0.19,0.04,0.2,0.03,0.02c0.02-0.34-0.13-0.7-0.27-0.99c-0.21-0.43,0,0.04-0.02,0.04c-0.03,0,0.03-2.13,0.03-2.33
			c0.01-0.78-0.69-1.54-1.5-1.5c-0.82,0.04-1.49,0.66-1.5,1.5c-0.01,0.73-0.1,1.46-0.04,2.19c0.04,0.5,0.11,0.95,0.33,1.41
			c0.03,0.06,0.04,0.17,0.03,0.03c-0.01-0.05-0.03-0.34-0.06-0.15c-0.03,0.28,0.08,0.61,0.18,0.86c0.15,0.36,0.4,0.65,0.68,0.92
			c0.03,0.02,0.1,0.08,0.11,0.12c-0.13-0.41-0.09-0.1-0.08-0.07c0.02,0.09,0.09,0.2,0.13,0.29c0.24,0.56,0.59,1.12,1.16,1.4
			c1.67,0.84,3.18-0.82,3.78-2.23c0.11-0.25,0.21-0.5,0.31-0.75c0.1-0.26-0.05,0.09,0.07-0.16c0.08-0.17,0.17-0.32,0.27-0.48
			c-0.14,0.21,0.13-0.12,0.21-0.19c0.11-0.11,0.22-0.21,0.32-0.33c0.09-0.1,0.4-0.39,0.41-0.54c0,0.12-0.36,0.33-0.07,0.12
			c0.28-0.2,0.5-0.42,0.7-0.7c0.45-0.65,0.5-1.44,0.74-2.16c-0.02,0.06-0.14,0.26,0,0.04c0.05-0.08,0.09-0.15,0.13-0.23
			c0.13-0.24,0.23-0.49,0.34-0.74c0.19-0.47,0.3-0.99,0.26-1.5c-0.05-0.78-0.65-1.54-1.5-1.5C38.4,28.58,37.62,29.2,37.67,30.04
			L37.67,30.04z"/>
	</g>
</g>
<g>
	<g>
		<path d="M30.97,32.16c-0.18,0.26-0.31,0.56-0.45,0.85c-0.18,0.38-0.37,0.8-0.46,1.21c-0.09,0.41-0.11,0.82-0.1,1.24
			c0.02,0.42,0.02,0.86,0.17,1.27c0.32,0.9,0.93,1.62,1.7,2.18c0.21,0.15-0.2-0.18-0.06-0.05c0.05,0.05,0.1,0.1,0.15,0.14
			c0.18,0.18,0.36,0.33,0.57,0.48c0.41,0.29,0.86,0.37,1.35,0.43c0.36,0.04,0.82-0.2,1.06-0.44c0.26-0.26,0.46-0.69,0.44-1.06
			c-0.02-0.39-0.14-0.79-0.44-1.06c-0.31-0.29-0.64-0.39-1.06-0.44c0.03,0,0.36,0.06,0.16,0.01c-0.26-0.07,0.28,0.12,0.14,0.06
			c-0.05-0.02-0.19-0.14,0.02,0.02c0.22,0.17,0.04,0.03,0-0.02c-0.25-0.23-0.5-0.44-0.77-0.64c-0.2-0.14,0-0.03,0.06,0.06
			c-0.03-0.04-0.09-0.07-0.13-0.11c-0.04-0.04-0.08-0.08-0.12-0.13c-0.02-0.02-0.21-0.26-0.05-0.06c0.14,0.18,0.01,0.01-0.02-0.04
			c-0.04-0.06-0.08-0.13-0.12-0.2c-0.03-0.05-0.05-0.12-0.08-0.16c0.03,0.06,0.06,0.13,0.08,0.19c-0.02-0.04-0.03-0.08-0.04-0.13
			c-0.07-0.15,0.01,0.3,0.01,0.14c0-0.06,0-0.11-0.01-0.17c0-0.13-0.01-0.27-0.02-0.4c0-0.14,0.01-0.27,0-0.41
			c0-0.18-0.07,0.3-0.02,0.14c0.02-0.07,0.03-0.14,0.05-0.21c0.04-0.14,0.09-0.27,0.14-0.4c0.07-0.18-0.13,0.27-0.04,0.11
			c0.03-0.05,0.05-0.1,0.07-0.15c0.12-0.25,0.23-0.51,0.39-0.74c0.45-0.64,0.14-1.7-0.54-2.05C32.25,31.21,31.45,31.47,30.97,32.16
			L30.97,32.16z"/>
	</g>
</g>
<g>
	<g>
		<path d="M22.98,30.19c0.04,0.03,0.07,0.07,0.11,0.1c0.09,0.06-0.16-0.27-0.12-0.16c0.01,0.02,0.12,0.24,0.14,0.24
			c-0.02,0-0.14-0.37-0.08-0.18c0.02,0.05,0.04,0.1,0.05,0.16c0.03,0.1,0.06,0.19,0.08,0.29c0.09,0.38,0.16,0.77,0.3,1.14
			c0.22,0.56,0.55,1.06,0.84,1.58c0.08,0.15-0.09-0.31-0.04-0.06c0.01,0.06,0.03,0.12,0.04,0.18c0.03,0.13,0.05,0.27,0.09,0.39
			c0.07,0.21,0.16,0.41,0.26,0.6c0.02,0.05,0.04,0.1,0.07,0.14c-0.18-0.28-0.09-0.24-0.05-0.07c-0.02-0.13-0.04-0.27-0.05-0.4
			c0,0.02,0,0.05,0.01,0.07c0.04,0.41,0.14,0.76,0.44,1.06c0.26,0.26,0.69,0.46,1.06,0.44c0.75-0.03,1.58-0.66,1.5-1.5
			c-0.02-0.23-0.04-0.47-0.13-0.69c0.01,0.03-0.26-0.65-0.29-0.64c0.03-0.01,0.11,0.36,0.07,0.15c-0.02-0.07-0.04-0.15-0.05-0.22
			c-0.03-0.15-0.06-0.3-0.11-0.44c-0.13-0.37-0.31-0.7-0.51-1.03c-0.08-0.13-0.15-0.25-0.23-0.38c-0.04-0.06-0.07-0.13-0.11-0.19
			c-0.06-0.13-0.06-0.24,0.06,0.16c-0.28-0.98-0.4-2.15-1.23-2.86c-0.31-0.26-0.64-0.44-1.06-0.44c-0.37,0-0.81,0.16-1.06,0.44
			C22.47,28.63,22.34,29.65,22.98,30.19L22.98,30.19z"/>
	</g>
</g>
<g>
	<g>
		<path d="M31.73,23.89c0.15-0.27,0.3-0.57,0.37-0.88c0.01-0.03,0.02-0.53,0.07-0.64c0.16-0.34,0.57-0.55,0.89-0.69
			c0.49-0.22,1.03-0.27,1.55-0.39c0.57-0.13,1.11-0.28,1.7-0.3c0.42-0.02,0.88-0.15,1.29-0.13c0.29,0.02,0.62,0.13,0.9,0.2
			c0.08,0.02,0.16,0.04,0.24,0.06c0.26,0.1,0.3,0.11,0.12,0.01c0.16,0.25,0.28,0.86,0.37,1.16c0.13,0.47,0.18,0.92,0.45,1.35
			c0.63,0.98,2.51,1,2.74-0.36c0.11-0.64-0.08-1.44,0.15-2.03c0.25-0.63,0.54-1.06,0.3-1.78c-0.5-1.53-2.64-1.39-3.94-1.37
			c-0.75,0.01-1.49,0.12-2.24,0.12c-0.76,0-1.46,0.12-2.15,0.43c-0.63,0.28-1.06,0.66-1.49,1.18c0.23-0.06,0.23-0.05-0.02,0.03
			c-0.2,0.08-0.4,0.17-0.59,0.25c-0.34,0.19-0.65,0.44-0.96,0.68c-0.57,0.44-1.07,0.87-1.32,1.57c-0.24,0.66-0.18,1.38-0.19,2.07
			c-0.01,1.46-0.24,2.9-0.28,4.36c-0.04,1.45-0.01,3.03,1.06,4.13c0.38,0.39,0.65,0.86,1.03,1.25c0.37,0.38,0.57,0.88,0.98,1.23
			c0.55,0.48,1.17,0.53,1.82,0.23c0.58-0.26,0.89-0.91,1-1.5c0.03-0.19,0.06-0.38,0.08-0.57c0.02-0.17,0.02-0.18-0.01,0
			c0.06-0.37,0.15-0.74,0.23-1.11c0.16-0.78,0.28-1.56,0.36-2.35c0.09-0.84,0.22-1.61-0.08-2.42c-0.27-0.72-0.38-1.25-0.27-2.02
			c0.09-0.69,0.31-1.07,0.67-1.66c0.31-0.52,0.61-1,1.12-1.33c0.26-0.17,0.54-0.3,0.79-0.48c0.12-0.08,0.27-0.18,0.37-0.28
			c0.21-0.2,0.26-0.01-0.06-0.04c-0.25-0.07-0.5-0.14-0.76-0.2c0.05,0.03,0.1,0.06,0.15,0.1c-0.18-0.18-0.36-0.36-0.54-0.54
			c0.02,0.03,0.1-0.34,0.04,0.06c-0.03,0.21,0.02,0.45,0.01,0.67c0,0.36-0.02,0.71-0.08,1.06c-0.13,0.73-0.6,1.42-1.07,1.99
			c-1.02,1.25-2.94,1.51-3.21,3.36c-0.3,2,2.56,3.44,3.74,1.58c0.4-0.64,0.71-1.43,0.96-2.14c0.13-0.38,0.18-0.76,0.27-1.15
			c0.12-0.51,0.32-0.97,0.38-1.49c0.1-0.84,0.1-1.84-0.55-2.47c-0.65-0.62-1.66-0.58-2.5-0.57c-1.6,0.02-4.05-0.46-4.68,1.52
			c-0.22,0.69-0.1,1.4-0.08,2.11c0.03,1.02,0,2.04-0.02,3.06c-0.03,1.44,0.43,3.93,2.27,4c0.89,0.03,1.63-0.6,2.17-0.98
			c0.6-0.42,1.58-1,2.4-1.36c1.68-0.75,3.44-1.69,4.53-3.22c0.82-1.14-0.53-2.45-1.69-2.2c-1.23,0.26-2.39,0.75-3.57,1.15
			c-1.21,0.42-2.06,0.93-2.78,2.01c-0.62,0.92-1.13,2.14-1.38,3.21c-0.13,0.58-0.2,1.17-0.33,1.75c-0.05,0.2-0.15,0.42-0.17,0.62
			c-0.06,0.59-0.48-0.28,0.51,0.04c0.22,0.13,0.44,0.26,0.66,0.39c0.23,0.2-0.01-0.07,0.01-0.01c-0.06-0.19-0.14-0.38-0.21-0.56
			c-0.22-0.53-0.21-1.02-0.18-1.6c0.08-1.5-2.09-2.02-2.8-0.76c-0.04,0.07-0.07,0.13-0.11,0.2c-0.94,1.69,1.65,3.2,2.59,1.51
			c0.04-0.07,0.07-0.13,0.11-0.2c-0.93-0.25-1.86-0.5-2.8-0.76c-0.05,0.95,0.08,1.87,0.4,2.68c0.25,0.64,0.43,1.32,1.02,1.74
			c0.84,0.61,1.9,0.4,2.66-0.23c0.63-0.52,0.96-1.28,1.16-2.07c0.39-1.51,0.47-3.14,1.45-4.44c0.45-0.6,1.13-0.69,1.82-0.94
			c0.91-0.33,1.81-0.66,2.75-0.86c-0.56-0.73-1.13-1.47-1.69-2.2c-0.31,0.43-0.86,0.72-1.29,1c-0.65,0.44-1.33,0.77-2.04,1.08
			c-0.73,0.32-1.41,0.68-2.08,1.12c-0.3,0.2-0.59,0.42-0.88,0.64c0.08-0.06-0.18,0.13-0.21,0.15c-0.37,0.31-0.28-0.11,0.25,0.08
			c0.22,0.13,0.44,0.26,0.66,0.39c0.27,0.25,0.18,0.39,0.1,0.07c-0.05-0.19-0.13-0.36-0.19-0.54c-0.13-0.41-0.1-0.78-0.09-1.21
			c0.03-1.03,0.05-2.06,0-3.08c-0.01-0.15-0.02-0.81-0.07-0.82c-0.21,0.17-0.41,0.34-0.62,0.51c0.07,0.01,0.15,0.01,0.22,0.02
			c0.18,0.04,0.4,0.01,0.58,0.01c0.46,0,0.92-0.01,1.37-0.02c0.24-0.01,0.47-0.01,0.71-0.01c0.09,0,0.19,0,0.28,0.01
			c0.46,0.06,0.38-0.02-0.25-0.23c-0.13-0.22-0.26-0.44-0.39-0.66c-0.06-0.17,0.02,0.22,0.02,0.32c-0.01,0.19-0.02,0.34-0.07,0.53
			c-0.1,0.43-0.23,0.85-0.33,1.29c-0.08,0.35-0.2,0.69-0.34,1.01c-0.09,0.2-0.18,0.4-0.28,0.6c-0.05,0.1-0.31,0.43-0.14,0.28
			c0.22-0.13,0.44-0.26,0.66-0.39c-0.04,0.01-0.08,0.02-0.12,0.02c0.27,0,0.53,0,0.8,0c0.06,0.05,0.12,0.07,0.19,0.08
			c0.07,0.25,0.14,0.5,0.2,0.76c0,0.27,0.02,0.08,0.24,0c0.25-0.09,0.52-0.29,0.74-0.44c0.49-0.33,0.98-0.75,1.37-1.18
			c0.93-1.03,1.7-2.34,1.9-3.71c0.17-1.17,0.34-2.67-0.35-3.71c-0.47-0.72-1.37-1.02-2.19-0.76c-0.54,0.17-0.98,0.58-1.37,0.82
			c-0.52,0.32-1.05,0.63-1.49,1.05c-0.53,0.51-0.91,1.16-1.3,1.78c-0.72,1.15-1.01,2.31-1.06,3.68c-0.01,0.41,0.01,0.83,0.09,1.23
			c0.08,0.39,0.31,0.73,0.39,1.11c0.12,0.54-0.04,1.22-0.11,1.77C33.14,31,33,31.61,32.88,32.22c-0.07,0.35-0.13,0.7-0.18,1.06
			c-0.08,0.6-0.06-0.02,0.37-0.22c0.61,0.08,1.21,0.16,1.82,0.23c-0.19-0.16-0.41-0.64-0.61-0.87c-0.22-0.25-0.44-0.46-0.63-0.72
			c-0.26-0.35-0.56-0.63-0.83-0.96c-0.09-0.09-0.08-0.08,0.03,0.05c-0.03-0.08-0.05-0.17-0.08-0.25c-0.04-0.25-0.08-0.41-0.09-0.66
			c-0.09-1.99,0.3-3.93,0.29-5.9c0-0.22-0.03-0.46,0-0.68c-0.03,0.21-0.27,0.25,0.04,0.08c0.33-0.18,0.59-0.5,0.93-0.68
			c0.42-0.22,0.79-0.31,1.14-0.67c0.26-0.27,0.4-0.55,0.75-0.7c0.27-0.12,0.56-0.1,0.85-0.11c0.56,0,1.09-0.07,1.65-0.1
			c0.83-0.05,1.78-0.1,2.59,0.12c-0.22-0.13-0.44-0.26-0.66-0.39c0.03,0.03,0.06,0.05,0.09,0.08c-0.13-0.22-0.26-0.44-0.39-0.66
			c0.02,0.05,0.03,0.1,0.05,0.15c0-0.27,0-0.53,0-0.8c0.03-0.2-0.07,0.16-0.1,0.24c-0.14,0.3-0.28,0.62-0.36,0.95
			c-0.14,0.58,0.05,1.12-0.04,1.67c0.91-0.12,1.83-0.24,2.74-0.36c0.07,0.11-0.03-0.03-0.04-0.11c-0.02-0.15-0.05-0.3-0.09-0.44
			c-0.09-0.34-0.23-0.66-0.34-0.99c-0.23-0.7-0.51-1.37-1.13-1.82c-0.64-0.47-1.42-0.61-2.17-0.78c-0.77-0.17-1.43-0.06-2.19-0.01
			c-1.55,0.1-3.36,0.4-4.76,1.1c-0.63,0.32-1.21,0.74-1.64,1.3c-0.27,0.35-0.5,0.75-0.62,1.18c-0.06,0.21-0.15,0.56-0.1,0.75
			c-0.01,0.15-0.01,0.14,0.03-0.02c0.06-0.19,0.04-0.17-0.07,0.07C28.19,24.06,30.78,25.57,31.73,23.89L31.73,23.89z"/>
	</g>
</g>
<g>
	<g>
		<path class="st0" d="M40.02,6.83c0.02,1.25,0.69,2.31,1.52,3.22c0.37,0.4,0.73,0.86,1.13,1.24c0.4,0.38,0.91,0.53,1.35,0.84
			c1.08,0.77,1.91,1.55,3.17,2.06c0.64,0.26,1.3,0.48,1.89,0.85c0.33,0.21,0.92,0.46,1.14,0.74c0.27,0.35,0.21,1.09,0.31,1.49
			c0.15,0.62,0.53,1,0.77,1.54c0.16,0.37,0.06,0.89,0.12,1.32c0.08,0.52,0.31,0.99,0.35,1.51c0.09,1.23,0.08,2.55,0.1,3.79
			c0.01,0.56-0.15,1.06-0.42,1.55c-0.06,0.12-0.6,1.3-0.66,1.33c0.63,0.48,1.27,0.96,1.9,1.45c-0.03,0.56,0.18-0.08,0.26-0.27
			c0.16-0.35,0.15-0.59,0.22-0.95c0.11-0.62,0.41-1.15,0.64-1.74c0.26-0.68,0.37-1.25,0.43-1.97c0.07-0.82,0.32-1.5,0.69-2.25
			c0.85-1.73-1.74-3.25-2.59-1.51c-0.43,0.86-0.85,1.78-1.03,2.73c-0.15,0.79-0.01,1.45-0.39,2.2c-0.39,0.77-0.71,1.44-0.75,2.35
			c-0.02,0.47,0.36-0.47-0.12,0.12c-0.29,0.36-0.34,0.84-0.36,1.28c-0.05,0.91,1.01,1.79,1.9,1.45c1.35-0.52,1.79-1.51,2.45-2.71
			c0.73-1.31,0.85-2.54,0.73-4c-0.11-1.34,0.19-2.77-0.17-4.08c-0.18-0.66-0.17-1.16-0.25-1.84c-0.08-0.73-0.42-1.06-0.76-1.67
			c-0.55-0.96-0.35-2.16-1.09-3.12c-0.42-0.54-0.91-0.68-1.47-1.01c-0.63-0.38-1.21-0.75-1.9-1.03c-0.69-0.29-1.39-0.51-2.01-0.93
			c-0.56-0.38-1.01-0.91-1.59-1.28c-0.57-0.36-0.92-0.6-1.37-1.11c-0.38-0.43-1.14-0.96-1.15-1.59C43,4.9,40,4.89,40.02,6.83
			L40.02,6.83z"/>
	</g>
</g>
<g>
	<g>
		<path class="st0" d="M50.72,29.13c0,0.36,0.01,0.72,0.01,1.08c0,0.51-0.11,0.25,0.16-0.02c0.49-0.13,0.97-0.26,1.46-0.39
			c-0.03,0-0.07-0.01-0.1-0.01c0.3,0.23,0.6,0.46,0.9,0.69c-0.04-0.05-0.08-0.1-0.12-0.15c0,0.5,0,1.01,0,1.51
			c0.03-0.05,0.05-0.1,0.08-0.15c-0.56,0.23-1.13,0.46-1.69,0.69c-0.93-0.17-0.46-0.76-0.57,0.01c-0.04,0.26,0.08,0.64,0.14,0.88
			c0.13,0.54,0.27,1.08,0.41,1.61c0.13,0.47,0.24,0.94,0.52,1.35c0.34,0.51,0.66,0.77,0.78,1.39c0.13,0.64,0.25,1.3,0.57,1.88
			c0.2,0.37,0.48,0.62,0.68,0.99c0.63,1.15,0.98,2.49,1.73,3.57c0.74,1.08,1.73,2.02,2.58,3.01c0.38,0.45,0.72,0.93,1.1,1.37
			c0.37,0.42,0.84,0.72,1.2,1.14c0.38,0.44,0.7,0.93,1.08,1.37c0.4,0.48,0.91,0.63,1.39,0.98c-0.43-0.32-0.09,0.09,0.11,0.27
			c0.21,0.19,0.45,0.34,0.68,0.49c0.2,0.13,0.4,0.24,0.6,0.35c0.32,0.18,0.43,0.47,0.3-0.04c0.47,1.87,3.36,1.08,2.89-0.8
			c-0.28-1.12-1.3-1.44-2.15-2.02c-0.84-0.58-1.58-1.29-2.26-2.1c-0.79-0.95-1.66-1.77-2.45-2.73c-0.89-1.07-2.11-2.08-2.78-3.3
			c-0.63-1.15-0.97-2.49-1.69-3.6c-0.13-0.2-0.45-0.42-0.55-0.62c0.15,0.33-0.07-0.53-0.07-0.54c-0.15-0.78-0.24-1.39-0.7-2.08
			c-0.33-0.51-0.56-0.68-0.72-1.28c-0.14-0.54-0.31-1.09-0.41-1.63c-0.2-1.07-0.24-2.57-1.63-2.82c-0.64-0.12-1.36,0.07-1.69,0.69
			c-0.03,0.05-0.05,0.1-0.08,0.15c-0.23,0.43-0.32,1.09,0,1.51c0.72,0.95,1.94,1.31,2.78,0.23c0.64-0.82,0.5-1.98,0.5-2.95
			C53.7,27.2,50.7,27.2,50.72,29.13L50.72,29.13z"/>
	</g>
</g>
<g>
	<g>
		<path class="st0" d="M61.09,49.28c0.14,0,0.27,0,0.41,0.02c-0.13-0.02-0.27-0.04-0.4-0.05c0.13,0.02,0.25,0.05,0.38,0.1
			c-0.12-0.05-0.24-0.1-0.36-0.15c0.13,0.06,0.25,0.13,0.36,0.22c-0.1-0.08-0.2-0.16-0.3-0.23c0.36,0.28,0.62,0.65,0.94,0.96
			c0.28,0.27,0.67,0.44,1.06,0.44c0.21,0.01,0.4-0.04,0.58-0.13c0.19-0.06,0.35-0.16,0.48-0.31c0.26-0.29,0.46-0.66,0.44-1.06
			c-0.02-0.39-0.15-0.78-0.44-1.06c-0.18-0.17-0.33-0.36-0.49-0.54c-0.24-0.27-0.52-0.5-0.82-0.71c-0.53-0.38-1.2-0.5-1.84-0.5
			c-0.39,0-0.79,0.17-1.06,0.44c-0.15,0.14-0.25,0.3-0.31,0.48c-0.09,0.18-0.14,0.37-0.13,0.58c0.02,0.39,0.14,0.79,0.44,1.06
			C60.32,49.11,60.68,49.29,61.09,49.28L61.09,49.28z"/>
	</g>
</g>
<g>
	<g>
		<path class="st0" d="M59.79,48.8c0.47,0.71,1.04,1.52,1.78,1.98c0.6,0.38,1.07,0.65,1.58,1.16c0.33,0.34,0.7,0.56,0.95,0.97
			c0.15,0.25,0.2,0.55,0.34,0.8c0.13,0.24,0.37,0.61,0.55,0.82c0.18,0.37,0.2,0.35,0.04-0.08c-0.11,0.13-0.21,0.28-0.29,0.43
			c-0.41,0.73-0.6,1.58-1.31,2.1c-0.33,0.24-0.75,0.37-1.1,0.58c-0.39,0.24-0.72,0.57-1.12,0.79c-0.66,0.36-1.26,0.71-1.87,1.15
			c-0.3,0.21-0.54,0.46-0.81,0.7c-0.12,0.18-0.27,0.32-0.47,0.42c-0.53,0.11-0.52,0.16,0.02,0.14c-1.15-0.53-2.57,0.35-2.2,1.69
			c0.53,1.98,0.59,3.87-0.07,5.82c-0.18,0.53-0.01,0.42-0.56,0.77c-0.35,0.22-0.48,0.33-0.86,0.5c-0.91,0.4-1.74,0.42-2.7,0.5
			c-1.77,0.15-3.55,0.27-5.33,0.45c-1.12,0.11-2.25,0-3.38,0.01c-1.05,0.01-1.98,0.24-3,0.42c-2.18,0.39-4.36,0.16-6.54,0.14
			c-2.04-0.03-4.09-0.16-6.12-0.39c-1.76-0.2-3.87-0.47-5.51-1.17c-1.72-0.74-3.08-2.1-4.57-3.19c0.25,0.43,0.5,0.86,0.74,1.3
			c0.04,0.31-0.12,0.21,0.19-0.06c0.18-0.15,0.39-0.35,0.54-0.51c0.17-0.18,0.37-0.41,0.5-0.63c0.01-0.02,0.39-0.67,0.13-0.42
			c-0.84-0.49-1.67-0.97-2.51-1.46c-0.04,0.27-0.11,0.45-0.22,0.69c-0.07,0.14-0.46,0.55-0.12,0.36c0.73,0.3,1.47,0.6,2.2,0.9
			c-0.13-0.53,0.34-1.24,0.56-1.74c0.28-0.63,0.4-1.13,0.53-1.8c0.26-1.33,0.67-2.49,0.67-3.9c0-1.47-0.02-2.9-0.14-4.35
			c-0.11-1.47,0.35-2.99-0.06-4.42c-0.38-1.31-1.04-2.52-2.18-3.3c-1.04-0.71-2.47-1.13-3.23-2.21c-0.54-0.76,0.18-2.48,0.45-3.27
			c0.52-1.52,1.38-2.8,2.14-4.2c0.75-1.38,1.59-2.66,2.42-3.99c0.39-0.63,0.66-1.35,1.07-1.97c0.36-0.56,0.95-0.96,1.1-1.65
			c0.3-1.35-0.97-2.07-1.88-2.76c-1.2-0.91-1.39-2.42-1.42-3.84c-0.03-1.41,0.16-2.86,0.74-4.16c0.67-1.5,1.92-2.28,3.37-2.93
			c1.24-0.55,2.57-0.69,3.79-1.26c1.37-0.65,2.4-1.72,3.74-2.41c1.28-0.66,2.52-1.47,3.69-2.32c1.2-0.88,2.65-1.77,4.22-1.5
			c1.45,0.25,2.87,1.7,3.98,2.61c0.77,0.62,1.32,1.36,2.36,1.49c0.9,0.11,1.79-1.06,1.45-1.9c-0.5-1.21-1.43-1.64-2.5-2.26
			c-1.27-0.74-2.38-1.31-3.82-1.63c-2.9-0.64-5.69-1.34-8.66-0.77c-1.89,0.36-1.09,3.25,0.8,2.89c2.16-0.41,4.41,0.13,6.51,0.65
			c1.06,0.26,1.95,0.44,2.89,1c0.45,0.27,0.9,0.53,1.36,0.79c0.28,0.15,0.73,0.61,0.53,0.13c0.48-0.63,0.96-1.27,1.45-1.9
			c0.74,0.35,0.93,0.38,0.54,0.08c-0.12-0.11-0.24-0.22-0.37-0.34c-0.22-0.2-0.44-0.39-0.67-0.57c-0.87-0.68-1.73-1.37-2.61-2.03
			c-1.67-1.25-3.68-1.52-5.68-1.01c-1.86,0.47-3.54,1.75-5.09,2.81c-0.84,0.58-1.67,1.05-2.54,1.58c-0.87,0.52-1.58,1.23-2.47,1.71
			c-0.89,0.48-1.84,0.55-2.78,0.9c-1.09,0.4-2.17,0.87-3.16,1.48c-1.83,1.13-2.94,2.8-3.54,4.84c-0.62,2.1-0.68,4.41-0.23,6.55
			c0.21,1.01,0.64,1.94,1.29,2.74c0.31,0.38,0.64,0.68,1.04,0.97c0.28,0.2,0.77,0.4,0.94,0.72c0-0.5,0-1.01,0-1.51
			c-0.16,0.35-0.5,0.6-0.72,0.92c-0.25,0.37-0.42,0.77-0.62,1.16c-0.49,0.97-1.11,1.88-1.71,2.79c-1.13,1.7-2.17,3.52-3,5.38
			c-0.73,1.64-1.46,3.41-1.61,5.22c-0.14,1.65,1.02,2.85,2.17,3.83c1.33,1.13,3.27,1.45,3.62,3.42c0.16,0.92-0.12,2.05-0.1,3
			c0.02,0.87,0.13,1.72,0.13,2.6c0,1.07,0.1,2.19-0.03,3.25c-0.1,0.81-0.48,1.51-0.59,2.31c-0.25,1.74-1.5,2.99-1.02,4.87
			c0.24,0.96,1.37,1.36,2.2,0.9c0.88-0.49,1.58-1.88,1.72-2.84c0.21-1.42-1.33-2.57-2.51-1.46c-0.32,0.3-0.41,0.6-0.6,0.98
			c-0.03,0.05-0.19,0.31-0.05,0.15c0.2-0.24-0.25,0.18-0.35,0.27c-0.55,0.54-1.13,1.14-1.23,1.94c-0.21,1.76,2.45,3.08,3.68,3.94
			c3.4,2.36,7.68,2.25,11.62,2.72c2.16,0.26,4.42,0.38,6.6,0.31c2.3-0.07,4.51-0.72,6.8-0.68c2.08,0.04,4.11-0.26,6.18-0.24
			c0.85,0.01,1.68-0.18,2.52-0.23c0.98-0.06,1.99-0.23,2.89-0.61c0.84-0.35,1.73-0.8,2.43-1.4c0.75-0.64,1-1.57,1.18-2.51
			c0.13-0.73,0.42-1.95,0.44-3.03c0.03-1.38-0.18-2.5-0.54-3.83c-0.73,0.56-1.47,1.13-2.2,1.69c2.24,1.04,3.62-0.77,5.27-1.93
			c1.93-1.36,4.1-2.03,5.17-4.34c0.42-0.9,1.17-1.74,1.07-2.78c-0.09-0.94-0.85-1.75-1.24-2.58c-0.43-0.91-1.19-1.58-1.89-2.28
			c-0.85-0.85-1.9-1.13-2.58-2.16C61.32,45.68,58.72,47.19,59.79,48.8L59.79,48.8z"/>
	</g>
</g>
<g>
	<g>
		<path class="st0" d="M1.22,2.2C5.9,2.37,10.56,2.2,15.24,2.46c4.76,0.26,9.59,0,14.36,0c4.72,0,9.49,0.09,14.19-0.41
			c2.38-0.25,4.71-0.39,7.1-0.37c2.35,0.02,4.66-0.14,7.01-0.04c1.21,0.05,2.38-0.18,3.59-0.23C62.68,1.36,63.82,1.55,65,1.7
			c1.33,0.17,2.61,0.56,3.93,0.78c0.53,0.09,1.07,0.15,1.6,0.22c0.42,0.05,1.29,0,1.66,0.19c-0.23-0.3-0.46-0.6-0.69-0.9
			c0.02,0.07,0.04,0.13,0.06,0.2c0.05-0.39,0.1-0.77,0.15-1.16c0.4-0.54,0.22-0.15-0.03-0.25c-0.16-0.07-0.61-0.02-0.81-0.02
			c-0.63-0.01-1.25-0.02-1.87-0.08c-1.27-0.11-2.5-0.39-3.75-0.63c-2.42-0.46-4.97-0.64-7.43-0.61c-5.08,0.06-10.16,0.7-15.24,0.68
			C37.51,0.11,32.46,0.24,27.4,0.44c-2.51,0.1-5.01-0.01-7.52,0.04c-1.12,0.02-2.22,0.27-3.34,0.28c-1.28,0.01-2.56,0-3.84,0
			c-2.53,0-5.04,0.05-7.56,0.18c-1.79,0.09-3.76-1.04-5.5-0.48C-2.39,1.11-1.9,3.55-0.38,4.44c1.82,1.08,4.2,1.04,6.24,1.02
			c5.23-0.05,10.46-0.28,15.69-0.35c2.65-0.04,5.31-0.06,7.96-0.05c2.64,0.01,5.27,0.26,7.9,0.32c2.91,0.07,5.83,0.25,8.73,0.1
			c2.94-0.15,5.93,0.2,8.88,0.27c2.94,0.07,5.89,0.1,8.83,0.1c1.33,0,2.68-0.21,4-0.33c0.97-0.09,2.8-0.52,3.63-0.13
			c0.25-0.93,0.5-1.86,0.76-2.8c-2.55-0.05-5.09-0.15-7.63-0.25c-2.4-0.1-4.73,0.26-7.12,0.34c-0.48,0.02-1.17,0.09-1.61-0.14
			c-0.34-0.17-0.59-0.56-0.91-0.78c-0.85-0.58-1.84-0.59-2.83-0.65c-2.46-0.14-4.79-0.05-7.22,0.39c-2.45,0.43-4.78,1.43-7.25,1.7
			c-2.55,0.28-5.12,0.26-7.67,0.39c-2.63,0.13-5.23,0.48-7.84,0.75c-2.56,0.26-5.14,0.3-7.71,0.4c-1.46,0.05-2.93,0.15-4.39,0.2
			C8.65,4.98,7.29,4.83,5.91,4.82C4.61,4.81,3.24,5.21,2,5.59C1.87,5.63,1.7,5.66,1.57,5.73C1.49,5.76,1.41,5.79,1.33,5.82
			C0.85,5.95,1.15,6.13,2.21,6.36C2.28,6.15,2.02,5.61,2,5.34C1.07,5.6,0.14,5.85-0.79,6.1c0.57,0.95,0.4,2.18,0.45,3.26
			c0.07,1.58,0.13,3.17,0.16,4.75c0.06,2.88-0.15,5.65-0.39,8.51c-0.5,6.04-0.99,12.18-0.89,18.25c0.02,1.4,0.25,2.79,0.28,4.19
			c0.03,1.66-0.01,3.32-0.02,4.98c-0.01,2.86,0,5.72,0,8.58c0,2.85-0.14,5.68-0.01,8.53c0.1,2.19,0.28,5.46,2.69,6.41
			c2.65,1.05,6.13,0.06,8.89-0.06c3.2-0.14,6.52-0.02,9.68-0.53c1.08-0.17,1.48-1.82,0.66-2.51c-2.27-1.89-5.71-1.68-8.52-1.9
			c-1.69-0.14-3.38-0.24-5.08-0.36c-1.64-0.12-3.26-0.29-4.89,0.06c0.56,0.23,1.13,0.46,1.69,0.69c-0.39-0.64-0.22-1.84-0.22-2.55
			c0-1,0.05-2.01,0.07-3.01c0.04-1.96,0.07-3.93,0.11-5.89c0.08-3.99,0.22-7.98,0.59-11.96c0.36-3.89,0.9-7.77,1.51-11.63
			c0.3-1.88,0.61-3.77,0.92-5.65c0.32-1.96,0.47-3.99,1.04-5.9c-0.98-0.13-1.96-0.27-2.95-0.4c-0.13,3.92-0.48,7.84-0.54,11.76
			c-0.06,3.91,0.05,7.82,0.13,11.73c0.15,7.68,0.53,15.43,0.16,23.11c0.75-0.43,1.5-0.86,2.26-1.3c0.54,0.27,0.31,0.61,0.34,0.02
			c0.02-0.31-0.04-0.66-0.05-0.98c-0.04-1.05-0.08-2.1-0.08-3.15c-0.02-2.98,0.12-5.95,0.19-8.93c0.15-5.97,0.35-11.94,0.4-17.92
			c0.02-1.94-2.91-1.92-3,0c-0.2,4.39-0.37,8.78-0.47,13.17c-0.05,2.1-0.05,4.2-0.07,6.3c-0.01,1.11-0.17,2.47,0.73,3.29
			c0.82,0.75,2.21,0.47,2.51-0.66c0.34-1.29,0.65-2.81,0.2-4.11c-0.37-1.09-2.18-1.63-2.74-0.36c-1.07,2.4-1.91,5.19-2.25,7.8
			c-0.19,1.43-0.21,2.88-0.27,4.32c-0.03,0.73-0.07,1.47-0.11,2.2c-0.02,0.32-0.04,0.65-0.04,0.97c-0.04,0.23-0.04,0.46,0.01,0.68
			c0.02,0.26,0.04,0.27,0.05,0c0.93,0.25,1.86,0.5,2.8,0.76c-0.3-4.2,0.26-8.43,0.47-12.62c0.21-4.15,0.08-8.32,0.43-12.46
			c0.08-0.92,0.03-2.19,0.35-3.06c0.27-0.73,0.87-1.38,1.3-2.03c1.11-1.67,2.27-3.28,3.45-4.9c1.23-1.69,2.44-3.39,3.74-5.03
			c1.09-1.37,2.59-2.61,3.25-4.25c0.65-1.6-1.9-2.58-2.74-1.16c-0.87,1.49-1.16,3.22-1.92,4.75c-0.86,1.75-1.81,3.48-2.71,5.21
			c-0.95,1.81-1.93,3.6-2.87,5.42c-0.42,0.8-0.82,1.61-1.19,2.43c-0.16,0.35-0.32,0.71-0.48,1.06c-0.11,0.24-0.21,0.47-0.31,0.71
			c-0.1,0.5-0.08,0.53,0.06,0.09c0.75,0.43,1.5,0.86,2.26,1.3c0.09-3.01,1.31-6.34,2.88-8.89c1.47-2.38,3.58-4.66,5.99-6.1
			c-0.61-0.08-1.21-0.16-1.82-0.23c-0.58-0.63-0.15-0.68-0.33-0.15c-0.08,0.23-0.11,0.48-0.17,0.71c-0.2,0.77-0.64,1.37-1.1,2.01
			c-1.06,1.47-2.12,2.94-3.09,4.47c-1.87,2.96-2.96,6.08-3.48,9.56c-0.27,1.78-0.13,3.58-0.1,5.37c0.03,1.93,0.05,3.86,0.18,5.79
			c0.25,3.63,0.71,7.2,0.44,10.84c0.63-0.48,1.27-0.96,1.9-1.45c-0.02-0.01-0.04-0.01-0.06-0.02c0.3,0.23,0.6,0.46,0.9,0.69
			c0.27,0.46,0.13,0.43,0.24-0.12c0.07-0.34,0.16-0.67,0.24-1c0.2-0.74,0.42-1.48,0.63-2.22c0.75-2.63,1.42-5.29,1.95-7.98
			c0.5-2.51,0.71-5.23,0.53-7.78c-0.2-2.91-0.17-5.79-0.3-8.7c-0.07-1.44-2.03-2.1-2.8-0.76C9.72,42.21,9.75,45,9.44,47.26
			c-0.39,2.8-0.67,5.66-0.82,8.48c-0.15,2.81,0.35,5.61,0.67,8.39c0.12,1.05,0.02,2.23,0.26,3.25c0.23,0.98,0.95,1.53,1.85,1.9
			c0.71,0.29,1.71-0.32,1.85-1.05c0.29-1.6,0.23-3.27,0.4-4.89c0.18-1.71,0.27-3.43,0.51-5.13c0.23-1.64,0.53-3.26,0.73-4.91
			c0.1-0.83,0.23-1.65,0.35-2.47c0.05-0.4-0.07-1.56,0.12-1.88c-0.56,0.23-1.13,0.46-1.69,0.69c-0.68-0.27-0.28-0.3-0.19,0.14
			c0.05,0.22,0.13,0.45,0.2,0.67c0.28,0.81,0.7,1.53,1.09,2.28c0.83,1.62,0.36,3.49,0.12,5.23c-0.26,1.89-0.65,3.74-1.07,5.59
			c-0.19,0.86-0.36,1.72-0.52,2.58c-0.14,0.75-0.18,1.72-0.57,2.39c0.3-0.23,0.6-0.46,0.9-0.69c-0.05,0.02-0.11,0.04-0.16,0.07
			c0.49,0.13,0.97,0.26,1.46,0.39c0.18,0.42,0.22,0.39,0.12-0.12c-0.01-0.32,0-0.64,0.02-0.96c0.03-0.63,0.1-1.27,0.16-1.9
			c0.11-1.24,0.21-2.47,0.34-3.71c0.24-2.25,0.52-4.66,1.21-6.82c0.49-1.54,2.45-4.01,0.79-5.43c-0.68-0.58-1.56-0.62-2.41-0.73
			c-1.26-0.16-2.47-0.38-3.69-0.74c-1.13-0.33-1.46-0.44-1.89-1.56c-0.35-0.89-0.51-1.8-0.51-2.75c0-2.19,0.74-4.35,1.62-6.33
			c0.75-1.69,1.58-3.92,3.06-5.11c0.83-0.67,1.99-0.77,2.99-1.06c0.94-0.28,1.9-0.57,2.78-1.01c1.54-0.77,0.46-3.19-1.16-2.74
			c-3.32,0.92-6.15,2.94-8.59,5.32c-1.37,1.34-2.67,2.76-4.01,4.14c-0.66,0.68-1.32,1.34-1.98,2.02c-0.33,0.34-0.67,0.67-0.98,1.02
			c-0.15,0.14-0.28,0.3-0.4,0.47c-0.28,0.44-0.15,0.48,0.41,0.12c0.35,0.35,0.7,0.7,1.05,1.05c-1.33-6.32-0.51-13.03,0.19-19.38
			c0.35-3.19,0.45-6.4,0.63-9.6c0.09-1.55,0.45-3.25,0.22-4.79C4.66,6.22,3.61,5.13,3.22,3.74C2.39,4.22,1.55,4.71,0.72,5.2
			c0.41,0.42,0.6,1.08,0.94,1.56c0.36,0.52,0.77,1.01,1.26,1.42c0.97,0.81,2.16,1.16,3.42,1.22c2.95,0.13,6-0.65,8.94-0.91
			c1.49-0.13,2.98-0.17,4.47-0.25c1.46-0.08,2.9-0.32,4.36-0.42c1.3-0.1,2.6-0.13,3.9-0.15c0.32-0.01,0.65-0.03,0.97,0
			c0.14,0.01,0.33,0.07,0.46,0.05c0.47-0.08,0.06,0.48-0.05-0.22c0.05-0.39,0.1-0.77,0.15-1.16c-0.41,0.94-1.78,1.18-2.69,1.32
			c-1.29,0.21-2.61,0.31-3.91,0.38c-2.45,0.14-4.91,0.23-7.37,0.31c-2.41,0.08-4.84,0.1-7.25,0.26c-1.2,0.08-2.41,0.22-3.6,0.44
			c-0.9,0.17-1.8,0.41-2.2,1.34c-0.35,0.82,0,2.15,0.63,2.77c0.75,0.73,2.03,0.48,2.95,0.27c2.37-0.53,4.78-0.95,7.18-1.34
			c2.42-0.39,4.85-0.71,7.27-1.15c2.52-0.46,4.98-1.13,7.47-1.73c1.56-0.38,1.28-2.4,0-2.89c-1.15-0.44-2.16-0.19-3.34-0.1
			C23.42,6.28,22.21,6.38,21,6.67c-2.24,0.55-4.29,1.86-5.86,3.53c-0.51,0.54-0.65,1.61,0,2.12c1.3,1.02,2.89,1.24,4.49,0.93
			c0.86-0.17,1.65-0.5,2.47-0.8c0.95-0.35,1.48-0.21,2.32,0.38c0-0.86,0-1.73,0-2.59c-2.76,1.93-6.49,2.35-9.78,2.18
			c-1.75-0.09-3.48-0.32-5.23-0.36C8,12.03,5.82,11.86,4.65,12.79c-1.13,0.9-1.17,2.66-1.29,3.99c-0.16,1.83-0.16,3.68-0.32,5.51
			c-0.3,3.6-0.94,7.16-1.24,10.75c-0.16,1.92,2.84,1.91,3,0c0.28-3.28,0.84-6.53,1.16-9.81c0.15-1.58,0.22-3.16,0.29-4.74
			c0.04-0.81,0.07-1.64,0.18-2.44c-0.01,0.04,0.18-0.97,0.04-0.83c0.18-0.18,1.03-0.11,1.26-0.13c3.26-0.18,6.49,0.57,9.75,0.33
			c2.92-0.21,6.03-0.9,8.45-2.59c0.96-0.67,0.96-1.92,0-2.59c-1.26-0.88-2.79-1.31-4.28-0.82c-1.06,0.35-3.3,1.66-4.4,0.78
			c0,0.71,0,1.41,0,2.12c1.24-1.31,2.77-2.33,4.54-2.76c0.87-0.21,1.75-0.34,2.64-0.37c0.92-0.04,1.91-0.34,2.77-0.01
			c0-0.96,0-1.93,0-2.89c-3.85,0.93-7.66,1.8-11.58,2.4c-1.94,0.29-3.89,0.6-5.82,0.95c-0.98,0.17-1.95,0.35-2.93,0.53
			c-0.89,0.16-1.77,0.5-2.67,0.42c0.43,0.25,0.86,0.5,1.3,0.74c-0.04-0.12-0.08-0.25-0.11-0.37c-0.15,0.35-0.29,0.71-0.44,1.06
			c-0.15,0.16,0.56-0.08,0.79-0.12c0.55-0.09,1.1-0.17,1.65-0.23c1.16-0.11,2.33-0.14,3.49-0.18c2.38-0.08,4.77-0.15,7.15-0.24
			c2.36-0.09,4.72-0.16,7.07-0.4c2.14-0.22,4.23-0.41,5.99-1.75c1.32-1,1.74-2.84,0.2-3.86c-0.99-0.66-2.29-0.61-3.43-0.59
			c-2.05,0.04-4.07,0.14-6.1,0.4c-2.23,0.29-4.49,0.24-6.72,0.44C12.51,5.73,10,6.19,7.47,6.36C6.41,6.43,5.41,6.45,4.61,5.65
			C3.85,4.9,3.58,3.84,2.84,3.07C1.79,2-0.07,3.1,0.33,4.53c0.36,1.31,1.48,2.45,1.62,3.8C2.03,9.13,1.81,10,1.76,10.8
			c-0.05,0.8-0.09,1.6-0.13,2.4c-0.18,3.29-0.37,6.56-0.69,9.84C0.31,29.4-0.39,35.93,0.95,42.26c0.1,0.47,0.57,0.95,1.05,1.05
			c1.97,0.38,2.54-0.98,3.73-2.21c1.43-1.48,2.87-2.96,4.3-4.45c2.62-2.73,5.37-5.39,9.12-6.43c-0.39-0.91-0.77-1.83-1.16-2.74
			c-1.55,0.77-3.36,0.87-4.93,1.58c-1.62,0.74-2.74,2.3-3.57,3.82C7.76,36,6.2,39.56,6.06,43.17c-0.07,1.81,0.35,3.55,1.13,5.18
			c0.79,1.65,2.26,2.1,3.92,2.57c0.97,0.27,1.94,0.45,2.94,0.58c0.06,0.01,1.48,0.27,1.52,0.19c-0.06-0.16-0.12-0.32-0.18-0.48
			c-0.07-0.53-0.15-0.64-0.24-0.32c-0.11,0.09-0.22,0.48-0.29,0.62c-0.85,1.79-1.32,3.61-1.66,5.55c-0.41,2.36-0.69,4.72-0.9,7.1
			c-0.15,1.71-1,4.92,0.48,6.26c0.36,0.33,0.96,0.59,1.46,0.39c1.99-0.82,1.89-3.77,2.27-5.59c0.52-2.52,1.07-5.01,1.4-7.56
			c0.3-2.3,0.57-4.32-0.57-6.43c-0.84-1.56-1.08-3.76-2.9-4.47c-0.61-0.24-1.38,0.16-1.69,0.69c-0.37,0.63-0.42,1.24-0.41,1.95
			c0,0.81-0.14,1.6-0.26,2.41c-0.24,1.72-0.49,3.43-0.76,5.14c-0.26,1.69-0.4,3.39-0.55,5.09c-0.08,0.88-0.19,1.75-0.27,2.63
			c-0.08,0.92,0.01,1.88-0.16,2.78c0.62-0.35,1.23-0.7,1.85-1.05c0.4,0.16,0.3,0.11,0.28-0.34c-0.01-0.48-0.09-0.96-0.14-1.43
			c-0.12-1.12-0.28-2.23-0.41-3.34c-0.28-2.34-0.43-4.61-0.2-6.96c0.22-2.24,0.35-4.48,0.67-6.7c0.15-1.05,0.31-2.11,0.45-3.16
			c0.13-0.93,0.14-1.91,0.62-2.74c-0.93-0.25-1.86-0.5-2.8-0.76c0.07,1.61,0.01,3.22,0.04,4.83c0.03,1.54,0.24,3.06,0.31,4.6
			c0.13,3.04-0.4,6.06-1.06,9.01c-0.54,2.39-1.24,4.73-1.89,7.09c-0.39,1.44-1.23,3.8,0.69,4.48c0.98,0.35,1.83-0.55,1.9-1.45
			c0.28-3.8-0.24-7.53-0.47-11.32c-0.12-2.01-0.13-4.02-0.16-6.03c-0.03-2.01-0.04-3.83,0.43-5.79c0.4-1.67,0.68-3.4,1.53-4.91
			c0.99-1.76,2.13-3.46,3.31-5.09c0.94-1.29,2-2.52,2.4-4.09c0.3-1.17,0.63-2.5-0.27-3.48c-0.44-0.48-1.26-0.57-1.82-0.23
			c-2.85,1.71-5.32,4.35-7.06,7.17c-1.85,3.01-3.18,6.86-3.29,10.4c-0.04,1.25,1.28,1.71,2.26,1.3c0.67-0.29,1.1-0.89,1.29-1.59
			c0.15-0.56,0.52-1.4,0.9-2.18c0.97-2.02,2.07-3.98,3.12-5.95c1.01-1.9,1.98-3.83,2.99-5.73c0.91-1.7,1.24-3.66,2.2-5.31
			c-0.91-0.39-1.83-0.77-2.74-1.16c-0.3,0.74-1.38,1.56-1.89,2.19c-0.58,0.71-1.14,1.44-1.7,2.17c-1.25,1.64-2.45,3.31-3.66,4.97
			c-1.17,1.6-2.28,3.24-3.39,4.89c-0.52,0.78-1.01,1.49-1.19,2.42c-0.19,0.96-0.23,1.97-0.32,2.94c-0.4,4.22-0.25,8.47-0.46,12.71
			c-0.21,4.27-0.79,8.59-0.48,12.86c0.1,1.4,2.04,2.15,2.8,0.76c0.59-1.08,0.36-2.45,0.42-3.66c0.08-1.47,0.11-2.95,0.21-4.42
			c0.16-2.59,0.93-5.52,1.99-7.9c-0.91-0.12-1.83-0.24-2.74-0.36c0.27,0.79,0,1.73-0.2,2.51c0.84-0.22,1.67-0.44,2.51-0.66
			c0.3,0.28,0.09,0.1,0.13-0.19c0.03-0.23,0.01-0.51,0.01-0.75c0.01-0.77,0-1.53,0-2.3c0.01-1.91,0.06-3.82,0.11-5.73
			c0.1-3.89,0.26-7.79,0.43-11.68c-1,0-2,0-3,0c-0.05,6.53-0.26,13.07-0.45,19.6c-0.09,3.14-0.22,6.28-0.1,9.41
			c0.05,1.36-0.22,3.79,1.23,4.53c1.04,0.52,2.2-0.12,2.26-1.3c0.36-7.67-0.01-15.43-0.16-23.11C7.52,41.52,7.4,37.61,7.47,33.7
			c0.06-3.93,0.42-7.84,0.54-11.76c0.05-1.72-2.47-2-2.95-0.4c-0.56,1.9-0.72,3.94-1.04,5.9c-0.33,2.04-0.67,4.08-0.99,6.13
			c-0.65,4.13-1.22,8.27-1.59,12.43c-0.37,4.23-0.49,8.46-0.57,12.7c-0.04,2.09-0.07,4.19-0.13,6.28c-0.05,1.71-0.33,3.93,0.6,5.45
			c0.36,0.6,1.03,0.83,1.69,0.69c1.25-0.26,2.58-0.06,3.84,0.03c1.46,0.11,2.93,0.21,4.39,0.31c1.29,0.09,2.57,0.24,3.86,0.36
			c1.12,0.1,2.54-0.03,3.46,0.74c0.22-0.84,0.44-1.67,0.66-2.51c-2.64,0.43-5.48,0.29-8.15,0.4c-2.59,0.1-5.43,0.78-8,0.41
			c-0.63-0.09-0.59-0.12-0.83-0.71c-0.22-0.53-0.37-1.04-0.41-1.61c-0.1-1.31-0.18-2.66-0.19-3.97C1.63,61.8,1.8,59.02,1.8,56.25
			c0-2.9,0-5.81,0.02-8.71c0.02-2.81-0.27-5.59-0.29-8.4c-0.02-2.84,0.22-5.65,0.41-8.47c0.2-2.9,0.28-5.8,0.55-8.69
			c0.29-3.14,0.39-6.19,0.29-9.34c-0.04-1.45-0.11-2.9-0.17-4.34C2.56,6.95,2.49,5.76,1.8,4.59C1.07,3.36-1.08,3.82-1,5.34
			c0.08,1.51,0.61,3.77,2.56,3.51c0.84-0.11,1.69-0.5,2.52-0.71C5.48,7.8,6.67,7.91,8.08,7.95c2.75,0.08,5.53-0.19,8.28-0.28
			c2.82-0.09,5.59-0.31,8.39-0.63c2.78-0.31,5.56-0.47,8.35-0.57c2.62-0.09,5.28-0.17,7.82-0.87c2.6-0.72,5.15-1.43,7.86-1.59
			c1.22-0.07,2.43,0.04,3.65,0.11c0.48,0.03,0.65,0.02,1.01,0.28c0.49,0.34,0.77,0.72,1.37,0.94c2.52,0.94,5.55-0.05,8.15-0.05
			c3.09,0,6.19,0.23,9.28,0.29c1.42,0.03,2.14-2.15,0.76-2.8c-1.34-0.63-2.99-0.51-4.43-0.36c-1.8,0.18-3.63,0.41-5.44,0.41
			c-3.92,0-7.86,0.02-11.77-0.2c-3.83-0.21-7.65-0.14-11.49-0.21c-3.79-0.08-7.57-0.38-11.36-0.37C20.66,2.09,12.81,2.51,4.95,2.47
			c-0.92,0-1.84-0.03-2.74-0.25C1.84,2.13,1.36,1.81,1.01,1.78C0.85,2.29,0.69,2.8,0.53,3.31c0.1,0.03,0.2,0.04,0.3,0.03
			C0.86,3.36,1.59,3.5,1.64,3.51c0.9,0.21,1.78,0.38,2.71,0.41c1.62,0.06,3.25-0.17,4.88-0.17c1.98,0,3.96,0,5.94,0
			c1.72,0,3.41-0.28,5.11-0.27c1.89,0,3.79,0.05,5.68,0c3.76-0.08,7.51-0.35,11.27-0.38c3.71-0.03,7.39-0.07,11.09-0.24
			C52,2.7,55.79,2.28,59.46,2.52c1.85,0.12,3.61,0.16,5.44,0.52c1.82,0.36,3.64,0.67,5.5,0.72c1.29,0.03,2.89,0.18,3.74-0.99
			c1.24-1.71-0.68-2.75-2.13-2.91c-3.22-0.36-6.4-1.4-9.64-1.46c-1.79-0.03-3.53,0.28-5.32,0.19c-1.82-0.09-3.62,0.1-5.44,0.1
			c-2.06-0.01-4.09-0.03-6.13,0.18c-2.23,0.23-4.44,0.44-6.68,0.48c-4.1,0.07-8.2,0.12-12.31,0.12c-4.21,0-8.42,0.09-12.63-0.08
			C9.63-0.8,5.43-0.65,1.22-0.8C-0.71-0.87-0.71,2.13,1.22,2.2L1.22,2.2z"/>
	</g>
</g>
<g>
	<g>
		<path class="st0" d="M7.49,17.53c0.84-0.22,1.46-0.83,2.17-1.3c0.84-0.55,1.71-1.08,2.57-1.6c1.3-0.79,2.92-1.86,4.45-2.02
			c0.89-0.09,1.73-0.33,2.64-0.35c1.01-0.02,2.01,0,3.02-0.08c0.92-0.08,2.1-0.4,3-0.08c0.88,0.31,1.55,0.59,2.52,0.66
			c-0.25-0.93-0.5-1.86-0.76-2.8c-1.47,0.89-3.26,1.68-4.9,2.2c-0.88,0.28-1.79,0.62-2.68,0.82c-0.81,0.18-1.62,0.23-2.42,0.49
			c-1.79,0.58-3.55,1.18-5.39,1.6c-1.77,0.41-3.76,0.47-5.47,1.07c-1.84,0.64-1.86,2.03-1.48,3.67c0.41,1.78,0.57,3.55,0.55,5.37
			c-0.02,1.91-0.29,3.85-0.14,5.76c0.06,0.8,0.12,1.67,0.31,2.45c0.07,0.28,0.15,0.56,0.32,0.8c0.08,0.12,0.91,1.19,0.48,0.46
			c0.61,1.02,1.96,0.92,2.59,0c0.49-0.71,0.47-1.9,0.49-2.73c0.05-1.73-2.45-1.98-2.95-0.4c0,0,0,0.01,0,0.01
			c0.98,0.13,1.96,0.27,2.95,0.4c0.31-2.83,0.27-5.58,0.26-8.43c-0.01-2.69,0.28-5.42,0.76-8.06c-0.91,0.12-1.83,0.24-2.74,0.36
			c0.27,0.36,0.29,1.41,0.37,1.85c0.15,0.85,0.29,1.7,0.44,2.55c0.3,1.73,0.61,3.47,0.91,5.2c0.31,1.77,0.61,3.55,0.78,5.34
			c0.14,1.46,0.52,3.27,0.29,4.73c0.96,0,1.93,0,2.89,0c-0.42-2.82-0.18-5.82-0.18-8.66c0-1.37-0.01-2.73-0.02-4.1
			c0-0.62-0.01-1.25,0.07-1.86c0.05-0.41,0.16-0.81,0.29-1.21c0.05-0.15,0.1-0.3,0.15-0.45c0.16-0.37,0.08-0.32-0.23,0.15
			c-0.5,0-1.01,0-1.51,0c-0.47-0.34-0.21-0.1-0.12,0.31c0.05,0.23,0.1,0.47,0.15,0.71c0.21,1.01,0.34,2.02,0.39,3.05
			c0.08,2.1-0.12,4.2-0.2,6.29c-0.06,1.65,2.7,2.09,2.95,0.4c0.58-3.96,1.42-7.99,2.77-11.77c-0.96-0.27-1.93-0.53-2.89-0.8
			c-0.16,0.7-0.35,1.39-0.55,2.07c-0.14,0.48-0.28,0.97-0.46,1.44c-0.03,0.09-0.12,0.23-0.13,0.32c-0.06,0.5-0.33-0.17,0.83-0.2
			c0.48,0.37,0.96,0.73,1.45,1.1c-0.22-1.3-0.05-2.69-0.01-4.01c0.03-1.01,0-2.35-1.01-2.92c-2.41-1.34-3.4,3.03-3.63,4.5
			c-0.41,2.61-0.13,5.23-0.66,7.83c-0.29,1.39-0.61,2.78-1,4.15c-0.18,0.65-0.34,1.32-0.7,1.9c-0.33,0.53-0.65,0.97-0.84,1.58
			c0.98,0.13,1.96,0.27,2.95,0.4c0.16-1.89,0.16-3.82,0.27-5.72c0.04-0.6,0.04-1.1-0.29-1.65c-0.41-0.68-0.19,0.32-0.11-0.34
			c0.05-0.44-0.1-0.99-0.11-1.45c-0.07-1.93-3.07-1.93-3,0c0.03,0.73,0.04,1.55,0.19,2.27c0.04,0.21,0.56,1.08,0.54,1.16
			c-0.06-0.16-0.11-0.32-0.17-0.48c-0.01,0.16-0.03,0.32-0.05,0.48c-0.34,1.89-0.11,3.83-0.27,5.72c-0.15,1.74,2.46,1.95,2.95,0.4
			c0.19-0.6,0.71-1.08,0.96-1.67c0.33-0.81,0.56-1.66,0.78-2.51c0.44-1.66,0.84-3.35,1.09-5.05c0.24-1.63,0.21-3.24,0.27-4.88
			c0.03-0.75,0.1-1.49,0.26-2.22c0.1-0.43,0.22-0.86,0.37-1.28c0.06-0.16,0.13-0.32,0.19-0.48c0.24-0.37,0.13-0.35-0.34,0.08
			c-0.49-0.13-0.97-0.26-1.46-0.39c-0.2-0.36-0.26-0.31-0.17,0.16c0,0.27-0.01,0.54-0.03,0.81c-0.01,0.41-0.02,0.83-0.03,1.24
			c-0.02,1.07-0.01,2.1,0.17,3.16c0.11,0.63,0.84,1.12,1.45,1.1c2.27-0.06,2.81-4.14,3.2-5.83c0.44-1.9-2.25-2.61-2.89-0.8
			c-1.35,3.78-2.19,7.81-2.77,11.77c0.98,0.13,1.96,0.27,2.95,0.4c0.1-2.65,0.38-5.3,0.06-7.94c-0.2-1.65-0.32-3.93-1.77-5
			c-0.43-0.32-1.08-0.24-1.51,0c-1.19,0.65-1.46,2.43-1.63,3.65c-0.23,1.71-0.11,3.47-0.11,5.19c0,3.53-0.24,7.18,0.29,10.69
			c0.21,1.44,2.67,1.43,2.89,0c0.27-1.73-0.01-3.55-0.16-5.28c-0.18-1.98-0.49-3.95-0.83-5.91c-0.33-1.89-0.67-3.78-1-5.67
			c-0.16-0.92-0.31-1.85-0.48-2.77c-0.13-0.72-0.17-1.74-0.63-2.34c-0.69-0.89-2.49-1.07-2.74,0.36C7,17.4,6.65,20.24,6.63,23.03
			c-0.02,3,0.07,5.91-0.26,8.9c-0.19,1.74,2.46,1.95,2.95,0.4c0,0,0-0.01,0-0.01c-0.98-0.13-1.96-0.27-2.95-0.4
			c-0.01,0.25-0.03,0.5-0.05,0.75c-0.03,0.23-0.23,0.76-0.03,0.47c0.86,0,1.73,0,2.59,0c-0.17-0.29-0.5-0.49-0.66-0.75
			c0.35,0.56,0.07-0.54,0.06-0.64C8.18,31,8.13,30.26,8.15,29.5c0.04-1.74,0.15-3.48,0.18-5.22c0.03-1.55-0.24-3.05-0.52-4.57
			c-0.06-0.32-0.08-0.88-0.27-1.15c-0.09-0.5-0.14-0.37-0.14,0.37c0.12-0.03,0.25-0.05,0.37-0.08c0.79,0.05,1.71-0.28,2.48-0.43
			c1.63-0.31,3.21-0.71,4.81-1.14c1.64-0.44,3.18-1.03,4.86-1.33c1.41-0.26,2.92-0.78,4.24-1.33c1.48-0.61,3.08-1.25,4.45-2.07
			c1.33-0.8,0.69-2.69-0.76-2.8c-0.85-0.06-1.51-0.56-2.34-0.71c-1.05-0.18-2.13,0.03-3.18,0.12c-2.02,0.17-3.97,0.14-5.97,0.46
			c-1.73,0.28-3.37,1.07-4.9,1.96c-0.88,0.51-1.73,1.06-2.59,1.59c-0.64,0.4-1.48,1.27-2.18,1.45C4.82,15.13,5.61,18.02,7.49,17.53
			L7.49,17.53z"/>
	</g>
</g>
<g>
	<g>
		<path class="st0" d="M40.35,7.54c1.34-0.07,2.68-0.36,4.02-0.48c1.33-0.12,2.72-0.27,4.03-0.51c2.67-0.48,5.1-1.69,7.78-2.07
			c1.45-0.21,2.98-0.06,4.44-0.08c1.24-0.01,2.48,0.04,3.67,0.31c0.64,0.15,1.21,0.1,1.84,0.35c0.6,0.24,1.21,0.38,1.84,0.56
			c0.17,0.05,0.47,0.07,0.61,0.19c-0.37-0.32-0.18,0.2-0.14,0.42c0.09,0.67,0.17,1.29,0.37,1.94c0.44,1.47,2.42,1.38,2.89,0
			c0.21-0.6,0.2-1.27,0.28-1.9C71.99,6.14,72,6,72.02,5.87c0.06-0.32,0.33-0.58-0.06-0.24c-0.84-0.22-1.67-0.44-2.51-0.66
			c0.27,0.86,0.18,1.91,0.18,2.8c-0.01,1.16-0.01,2.32-0.01,3.49c0,2.32-0.13,4.63-0.13,6.95c0,4.85-0.12,9.8-0.57,14.63
			c-0.24,2.62-0.11,5.22-0.24,7.84c-0.12,2.58-0.23,5.13-0.23,7.72c0,2.53-0.08,5.04,0,7.56c0.04,1.19,0,2.4,0,3.59
			c0,0.71-0.16,1.61,0.08,2.3c0.45,1.25,2.63,1.59,2.89,0c0.95-5.68,2.53-11.22,2.16-17.05c-0.18-2.91-0.08-5.88-0.07-8.79
			c0.01-1.34,0.04-2.68,0.22-4.01c0.06-0.47,0.14-0.94,0.21-1.4c0.03-0.17,0.05-0.35,0.08-0.52c0.02-0.14,0.22-0.58,0.04-0.33
			c-0.93-0.25-1.86-0.5-2.8-0.76c-0.48,7.61-0.58,15.18-0.59,22.8c0,1.87-0.1,3.74-0.2,5.61c-0.1,1.8,0,3.61-0.28,5.39
			c-0.28,1.76-0.69,3.51-1.03,5.26c-0.31,1.61-0.32,3.24-0.39,4.87c-0.04,0.89,1,1.81,1.9,1.45c1.64-0.67,1.78-2.1,2.14-3.64
			c0.24-1.04-0.47-1.78-1.45-1.9c-1.14-0.14-2,0.7-2.97,1.16c-1.21,0.57-2.35,0.56-3.66,0.55c-1.17-0.01-2.31-0.11-3.48-0.2
			c-0.68-0.05-1.35-0.08-2.02-0.03c-0.41,0.03-1.2,0.27-1.59,0.12c0.35,0.35,0.7,0.7,1.05,1.05c-0.1-0.54,0.42-1.85,0.58-2.38
			c0.25-0.86,0.6-1.68,0.9-2.53c0.59-1.71,1.06-3.43,2.35-4.75c2.49-2.57,5.83-4.63,9.01-6.23c-0.73-0.56-1.47-1.13-2.2-1.69
			c-0.5,1.45-2.13,2.78-3.12,3.91c-1.37,1.57-2.66,3.19-4.08,4.7c-1.34,1.44-2.81,2.63-4.24,3.96c-0.92,0.85-1.66,2.04-1.07,3.27
			c0.42,0.87,1.73,0.96,2.36,0.3c1.36-1.42,2.5-3.02,3.6-4.64c0.5-0.74,0.94-1.55,1.47-2.28c0.56-0.78,1.31-1.43,1.98-2.11
			c-0.85-0.35-1.71-0.71-2.56-1.06c-0.06-0.43,0.01-0.13-0.09,0.2c-0.1,0.3-0.21,0.59-0.32,0.89c-0.1,0.26-0.2,0.52-0.3,0.77
			c-0.02,0.06-0.12,0.45-0.09,0.22c0.02-0.14,0.04-0.08,0-0.02c0.91,0.39,1.83,0.77,2.74,1.16c0.01-0.04,0.02-0.07,0.04-0.11
			c0.67-1.82-2.22-2.59-2.89-0.8c-0.54,1.42-1.1,2.83-1.64,4.26c-0.24,0.62-0.46,1.25-0.68,1.88c-0.19,0.53-0.38,1.6-0.74,2.04
			c0.84,0.22,1.67,0.44,2.51,0.66c-0.39,0.88-0.36,1.09,0.11,0.62c0.1-0.12,0.21-0.24,0.31-0.37c0.32-0.35,0.62-0.74,0.92-1.11
			c0.61-0.75,1.21-1.51,1.8-2.27c1.2-1.53,2.38-3.07,3.6-4.59c-0.79-0.1-1.57-0.2-2.36-0.3c0.11-0.77,0.02-0.89-0.27-0.38
			c-0.12,0.28-0.25,0.56-0.38,0.85c-0.23,0.49-0.46,0.98-0.69,1.47c-0.41,0.85-1.09,1.71-1.25,2.65c-0.27,1.59,1.84,2.72,2.74,1.16
			c1.36-2.36,2.59-4.78,3.93-7.14c-0.91-0.39-1.83-0.77-2.74-1.16c-0.76,1.84-1.53,3.68-2.24,5.53c-0.34,0.89-0.66,1.79-0.97,2.69
			c-0.29,0.83-0.74,1.78-0.7,2.67c0.08,1.44,2.03,2.11,2.8,0.76c0.55-0.96,1.05-1.98,1.75-2.85c-0.84-0.22-1.67-0.44-2.51-0.66
			c0.34,0.97,0.23,1.98,0.15,2.98c-0.09,1.21-0.16,2.43-0.24,3.64c-0.11,1.69,2.56,2.04,2.95,0.4c0.47-1.97,1.15-4.11,1.08-6.15
			c-0.03-1.02-1.3-2.02-2.26-1.3c-0.55,0.42-0.93,0.84-1.34,1.38c0.93,0.25,1.86,0.5,2.8,0.76c-0.07-2.16,0.53-4.3,0.54-6.47
			c0.01-1.43-2.12-2.12-2.8-0.76c-0.68,1.37-0.37,3.47-0.31,4.95c0.06,1.71,2.41,2.01,2.95,0.4c0.38-1.13,0.58-2.27,0.79-3.44
			c0.2-1.13,0.49-2.25,0.38-3.41c-0.13-1.31-1.54-1.96-2.56-1.06c-0.89,0.78-1.12,1.8-1.34,2.91c-0.17,0.89-0.46,1.75,0.01,2.6
			c0.57,1.04,2.56,0.96,2.74-0.36c0.21-1.53,0.8-4.71-1.36-5.15c-0.87-0.18-1.53,0.28-2.22,0.73c-0.88,0.58-1.81,0.84-2.78,1.24
			c-1.85,0.77-3.81,2.04-4.49,4.01c-0.15,0.43-0.31,1.07-0.07,1.51c0.07,0.38,0.14,0.4,0.21,0.07c-0.15,0.16-0.3,0.33-0.45,0.49
			c-0.61,0.66-1.59,1.35-1.74,2.27c-0.1,0.59,0.05,1.42,0.69,1.69c1.23,0.53,2.15,0.21,3.34-0.29c1.19-0.5,2.71-1.06,4.01-1.1
			c1.93-0.06,1.93-3.06,0-3c-1.28,0.04-2.49,0.45-3.71,0.81c-0.49,0.15-0.96,0.31-1.43,0.52c-0.2,0.09-0.47,0.16-0.64,0.29
			c-0.21,0.14-0.5-0.01-0.05,0.18c0.23,0.56,0.46,1.13,0.69,1.69c-0.16,0.27-0.15,0.29,0.03,0.08c0.14-0.14,0.28-0.28,0.41-0.43
			c0.22-0.23,0.43-0.48,0.64-0.71c0.44-0.48,0.92-0.99,1.1-1.64c0.08-0.29,0.08-0.63,0.04-0.92c-0.03-0.21-0.27-0.6-0.24-0.79
			c-0.03,0.19,0.57-0.6,0.56-0.58c0.22-0.21,0.57-0.36,0.82-0.53c1.23-0.82,2.58-1.1,3.86-1.79c0.32-0.17,1.14-0.56,1.35-0.89
			c-1.01-0.92-1.47-1.05-1.38-0.39c0.01,0.21,0.02,0.41,0.01,0.62c-0.01,0.41-0.04,0.82-0.1,1.23c0.91-0.12,1.83-0.24,2.74-0.36
			c0.31,0.57,0.04,0.52,0.21,0.15c0.08-0.18,0.08-0.4,0.11-0.59c0.1-0.54,0.11-1.05,0.54-1.43c-0.85-0.35-1.71-0.71-2.56-1.06
			c0.18,1.88-0.47,4.27-1.06,6.04c0.98,0.13,1.96,0.27,2.95,0.4c-0.03-0.72-0.02-1.44-0.01-2.16c0-0.19-0.14-1.18-0.09-1.28
			c-0.93-0.25-1.86-0.5-2.8-0.76c-0.02,2.16-0.61,4.31-0.54,6.47c0.05,1.6,1.92,1.89,2.8,0.76c0.09-0.1,0.18-0.2,0.27-0.31
			c-0.75-0.43-1.5-0.86-2.26-1.3c0.06,1.77-0.57,3.64-0.98,5.35c0.98,0.13,1.96,0.27,2.95,0.4c0.15-2.34,0.76-5.15-0.03-7.42
			c-0.33-0.96-1.74-1.61-2.51-0.66c-0.87,1.08-1.53,2.26-2.22,3.46c0.93,0.25,1.86,0.5,2.8,0.76c-0.02-0.3,0.46-1.5,0.67-2.09
			c0.31-0.9,0.64-1.8,0.98-2.69c0.69-1.78,1.43-3.54,2.15-5.31c0.65-1.59-1.92-2.6-2.74-1.16c-1.35,2.36-2.58,4.79-3.93,7.14
			c0.91,0.39,1.83,0.77,2.74,1.16c0.09-0.52,0.5-1.03,0.74-1.51c0.34-0.69,0.66-1.4,0.99-2.1c0.58-1.2,1.25-1.94,0.55-3.28
			c-0.41-0.79-1.76-1.04-2.36-0.3c-1.52,1.89-2.99,3.83-4.5,5.73c-0.68,0.85-1.33,1.77-2.1,2.54c-0.76,0.76-1.05,1.24-0.9,2.35
			c0.14,1.08,1.85,1.49,2.51,0.66c0.98-1.23,1.35-2.94,1.88-4.41c0.62-1.71,1.31-3.39,1.95-5.09c-0.96-0.27-1.93-0.53-2.89-0.8
			c-0.01,0.03-0.03,0.07-0.04,0.11c-0.52,1.67,1.84,2.55,2.74,1.16c0.31-0.48,0.49-1.15,0.69-1.69c0.2-0.53,0.6-1.29,0.52-1.89
			c-0.16-1.22-1.56-2.07-2.56-1.06c-1.35,1.35-2.38,2.68-3.43,4.26c-1.1,1.67-2.23,3.31-3.62,4.76c0.79,0.1,1.57,0.2,2.36,0.3
			c-0.02-0.04-0.04-0.07-0.05-0.11c0.05,0.39,0.1,0.77,0.15,1.16c0.12-0.83,1.99-1.86,2.63-2.46c1.41-1.33,2.73-2.79,3.98-4.27
			c1.17-1.39,2.35-2.77,3.55-4.14c1-1.15,2.05-2.23,2.55-3.7c0.45-1.32-1.12-2.24-2.2-1.69c-3.13,1.58-6.27,3.61-8.86,5.98
			c-1.42,1.29-2.3,2.65-3.03,4.42c-0.65,1.58-1.26,3.26-1.74,4.9c-0.36,1.24-1.32,3.54-0.19,4.64c0.51,0.49,1.2,0.52,1.86,0.48
			c1.01-0.06,1.98-0.16,3-0.09c1.81,0.13,3.61,0.29,5.43,0.21c0.86-0.03,1.68-0.23,2.48-0.54c0.39-0.15,0.77-0.33,1.14-0.51
			c0.29-0.14,0.95-0.7,1.27-0.66c-0.48-0.63-0.96-1.27-1.45-1.9c-0.08,0.35-0.13,0.71-0.21,1.06c-0.03,0.16-0.14,0.39-0.14,0.55
			c0,0.35-0.52,0.28,0.3-0.05c0.63,0.48,1.27,0.96,1.9,1.45c0.07-1.67,0.13-3.3,0.47-4.94c0.35-1.66,0.69-3.35,0.93-5.03
			c0.25-1.76,0.19-3.53,0.28-5.3c0.1-1.95,0.21-3.9,0.21-5.85C73.7,44.18,73.8,36.6,74.28,29c0.1-1.6-2.02-1.89-2.8-0.76
			C71.1,28.8,71.1,29.6,71,30.25c-0.2,1.32-0.38,2.62-0.44,3.95c-0.13,3.03-0.05,6.09-0.02,9.13c0.01,1.47,0.19,2.92,0.11,4.39
			c-0.08,1.5-0.23,3-0.43,4.49c-0.4,2.98-1.19,5.88-1.68,8.84c0.96,0,1.93,0,2.89,0c-0.18-0.5,0.03-1.75,0.03-2.39
			c0-1.2,0.04-2.4-0.06-3.59c-0.2-2.53,0.06-5.1,0.06-7.64c0-2.59,0.21-5.15,0.26-7.73c0.05-2.6,0.08-5.16,0.29-7.75
			c0.4-4.87,0.49-9.82,0.49-14.7c0-2.3,0.13-4.59,0.13-6.89c0-1.97,0.32-4.3-0.28-6.2C72,3.03,70.71,2.76,69.84,3.5
			c-1.09,0.93-0.63,2.68-1.04,3.88c0.96,0,1.93,0,2.89,0c-0.35-1.19-0.15-2.84-1.08-3.77c-0.87-0.88-2.38-0.93-3.48-1.35
			c-0.75-0.28-1.37-0.29-2.13-0.41c-0.26-0.04-0.52-0.22-0.79-0.27c-0.34-0.07-0.67-0.02-1.01-0.04c-1.68-0.11-3.34-0.12-5.03-0.12
			c-1.59,0-3.07,0.24-4.63,0.5c-0.72,0.12-1.28,0.42-1.94,0.68c-0.73,0.3-1.54,0.41-2.31,0.59C47.88,3.53,46.48,3.83,45.02,4
			c-0.76,0.09-1.52,0.11-2.28,0.17c-0.81,0.05-1.59,0.33-2.39,0.38C38.43,4.64,38.41,7.64,40.35,7.54L40.35,7.54z"/>
	</g>
</g>
<g>
	<g>
		<path class="st0" d="M56.25,44.01c0.27,0.85,0.63,1.64,0.86,2.51c0.26,0.99,0.61,1.29,1.36,1.93c0.46,0.39,0.77,0.91,1.19,1.34
			c0.53,0.54,1.26,0.9,1.85,1.37c0.68,0.54,1.5,0.85,2.18,1.37c0.7,0.54,1.2,1.27,1.94,1.79c1.27,0.9,3.43,1.42,4.42-0.18
			c0.41-0.67,0.42-1.46,0.27-2.21c-0.19-0.96-0.13-1.8,0.09-2.76c0.49-2.12,0.91-4.08,0.9-6.28c-0.02-4.27,0.33-8.64,0.63-12.9
			c0.17-2.44,0.67-4.85,1.01-7.27c0.34-2.41,0.47-4.72,0.47-7.16c0-1.93-3-1.93-3,0c0,2.45-0.08,4.79-0.49,7.21
			c-0.39,2.31-0.78,4.64-0.97,6.98c-0.37,4.67-0.56,9.41-0.63,14.09c-0.04,2.26-0.95,4.36-1.14,6.6c-0.04,0.54-0.06,1.08,0.05,1.62
			c0.06,0.21,0.11,0.42,0.17,0.62c0.78-0.37,0.91-0.55,0.41-0.53c-0.19-0.22-0.58-0.33-0.82-0.53c-0.39-0.33-0.68-0.75-1.04-1.1
			c-1.22-1.16-2.98-1.74-4.19-2.89c-0.33-0.32-0.59-0.74-0.92-1.07c-0.23-0.23-0.69-0.46-0.86-0.7c0.13,0.22,0.12,0.1-0.03-0.36
			c-0.07-0.3-0.16-0.59-0.26-0.88c-0.15-0.48-0.4-0.94-0.55-1.41C58.56,41.38,55.67,42.16,56.25,44.01L56.25,44.01z"/>
	</g>
</g>
<g>
	<g>
		<path class="st0" d="M42.55,7.76c1.17,1.15,2.31,2.44,3.65,3.4c0.64,0.46,1.29,0.99,2.04,1.25c0.71,0.25,1.74,0.14,2.36,0.63
			c0.42,0.33,0.72,1.36,0.89,1.87c0.3,0.9,0.77,1.82,0.83,2.77c0.05,0.94,0.04,1.85,0.16,2.79c0.13,1.03,0.11,2.11,0.04,3.14
			c-0.15,2.04-0.53,4.03-0.5,6.09c0.02,1.61,0.33,3.62,0.99,5.1c0.34,0.76,0.72,1.5,1.01,2.28c0.32,0.86,0.44,1.8,0.67,2.69
			c0.2,0.76,0.45,1.54,0.79,2.25c0.38,0.78,1.07,1.37,1.67,1.98c1.43,1.46,2.99,2.78,4.42,4.24c0.7,0.72,1.25,1.54,1.91,2.3
			c0.69,0.8,1.59,1.39,2.26,2.2c1.18,1.42,2.98-0.39,2.36-1.82c-0.99-2.26-1.63-4.76-2.96-6.85c-1.12-1.75-2.5-2.76-4.15-3.97
			c-1.66-1.21-2.71-2.86-3.39-4.77c-0.42-1.18-0.63-2.33-0.69-3.58c-0.03-0.63-0.07-1.28-0.04-1.91c-0.02-0.29,0.01-0.58,0.08-0.87
			c0.13-0.35,0.05-0.31-0.26,0.11c-0.73-0.3-1.47-0.6-2.2-0.9c0.49,1.43,0.43,2.95,0.96,4.38c0.53,1.43,1.11,2.88,2.15,4.02
			c1.03,1.12,1.95,2.29,2.87,3.51c0.85,1.12,1.84,2.17,2.55,3.38c0.74,1.26,1.08,2.56,1.4,3.95c0.31,1.35,1.3,2.34,2.69,2.49
			c0.97,0.11,2.5,0.25,3.39-0.21c1.1-0.57,1.11-1.77,1.19-2.84c0.09-1.22,0.16-2.43-0.75-3.4c-0.9-0.95-2.14-1.14-3.27-1.63
			c-2.65-1.14-4.04-4.32-5.15-6.75c-1.29-2.82-3.05-5.44-4.13-8.35c-1.05-2.83-1.5-5.95-1.75-8.95c-0.13-1.57,0.13-3.42-0.36-4.93
			c-0.43-1.3-1.49-2.68-2.33-3.74c-0.81-1.01-1.85-2.3-3.11-2.75c-0.76-0.27-1.59-0.26-2.39-0.33c-0.67-0.06-1.32-0.2-1.98,0.01
			C45.16,6.49,45,8.1,46.07,8.82c1.35,0.91,2.77,1.66,4.37,2.01c1.24,0.27,3.05,1.09,4.3,0.6c0.77-0.3,1.26-0.99,1.05-1.85
			c-0.38-1.5-2.52-2.27-3.75-2.93c-1.58-0.85-3.42-1.46-4.87-2.52c-0.39,0.91-0.77,1.83-1.16,2.74c1.94,0.41,3.9,0.68,5.86,0.91
			c1.68,0.19,3.78,0.74,5.43,0.27c1.81-0.51,3.62-0.38,5.5-0.39c0.89,0,1.77,0,2.66,0c0.62,0,1.58-0.19,2.14,0.12
			c-0.25-0.43-0.5-0.86-0.74-1.3c0.02-0.25-0.23,0.17-0.31,0.22c-0.22,0.14-0.43,0.25-0.68,0.35c-0.58,0.24-1.1,0.38-1.73,0.34
			c-1.47-0.1-2.9-0.7-4.34-0.97c-1.26-0.24-2.74-0.19-3.9,0.44c-0.88,0.48-1.8,1.07-2.13,2.08c-0.35,1.1,0.1,2.36,1.28,2.69
			c1.1,0.31,2.61-0.23,3.7-0.39c1.59-0.23,3.17-0.29,4.77-0.35c0.81-0.03,1.62-0.09,2.43-0.12c0.28-0.01,0.56-0.03,0.83-0.03
			c0.39-0.01,0.83,0.24,0.45-0.25c-0.05-0.39-0.1-0.77-0.15-1.16c0.08-0.4,0.22-0.2-0.22-0.07c-0.34,0.1-0.66,0.26-1,0.37
			c-0.52,0.16-1.06,0.27-1.59,0.36c-1.21,0.19-2.45,0.26-3.68,0.28c-1.08,0.02-2.18,0-3.25-0.15c-0.94-0.13-1.8-0.31-2.59,0.37
			c-1.62,1.39-0.87,4.32-0.48,6.06c0.29,1.27,0.62,2.5,1.08,3.72c0.43,1.13,0.76,2.36,1.41,3.38c0.62,0.97,2.55,1.01,2.74-0.36
			c0.3-2.11,0.04-4.21-0.19-6.32c-0.24-2.22-0.38-4.44-0.4-6.67c-0.02-1.93-2.94-1.93-3,0c-0.21,6.67,1.08,13.53,2.63,19.99
			c0.28,1.17,2.21,1.56,2.74,0.36c0.52-1.17,0.43-2.36,0.46-3.63c0.04-1.35,0.06-2.69,0.09-4.04c0.05-2.74,0.12-5.47,0.26-8.2
			c-1,0-2,0-3,0c0.16,6.85-0.33,13.69-0.13,20.53c0.05,1.62,2.63,2.13,2.95,0.4c0.56-3.03,0.45-5.94,0.46-9
			c0.01-3.19,0-6.39-0.02-9.58c-0.02-3.05-0.02-6.1-0.07-9.15c-0.01-0.75-0.16-1.63-0.05-2.37c0.07-0.48,0.34-0.96,0.37-1.48
			c0.07-1.12-0.55-1.89-1.58-2.26c-0.96-0.35-1.86,0.54-1.9,1.45c-0.37,8.44-0.21,16.9,0.46,25.32c0.12,1.46,1.97,2.07,2.8,0.76
			c0.61-0.96,0.66-2.03,0.83-3.14c0.17-1.2,0.33-2.39,0.47-3.59c0.3-2.56,0.59-5.12,1.02-7.67c-0.98-0.13-1.96-0.27-2.95-0.4
			c0.22,3.6-0.1,7.28-0.26,10.88c-0.16,3.62-0.33,7.25-0.62,10.86c0.98-0.13,1.96-0.27,2.95-0.4c-0.43-2.18-0.19-4.36-0.21-6.57
			c-0.02-2.25-0.02-4.5,0.01-6.74c0.06-4.57,0.36-9.12,0.55-13.68c-1,0-2,0-3,0c0.56,5.34,0.51,10.78,0.73,16.14
			c0.23,5.55,0.28,11.1,0.13,16.66c0.98-0.13,1.96-0.27,2.95-0.4c-0.18-1.06-0.06-2.07-0.04-3.13c0.02-1,0-2,0.01-3
			c0.02-2.25,0.09-4.49,0.18-6.74c0.17-4.31,0.37-8.62,0.63-12.93c-1,0-2,0-3,0c0.18,4.45-0.18,8.97-0.36,13.42
			c-0.18,4.45-0.34,8.9-0.58,13.34c1,0,2,0,3,0c-0.09-4.7-0.02-9.39,0.08-14.09c0.05-2.23,0.1-4.47,0.16-6.7
			c0.03-1.09,0.07-2.19,0.11-3.28c0.04-1.23-0.26-2.35,0.1-3.56c-0.98-0.13-1.96-0.27-2.95-0.4c0.21,5.38,0.46,10.77,0.79,16.15
			c0.32,5.35,0.55,10.74,1.18,16.06c0.22,1.88,2.91,1.98,3,0c0.24-5.19,0.24-10.38,0.31-15.57c0.03-2.58,0.09-5.16,0.18-7.75
			c0.04-1.27,0.01-2.59,0.15-3.86c0.13-1.16,0.31-2.11-0.07-3.26c-0.43-1.28-2.62-1.57-2.89,0c-0.57,3.22-0.85,6.48-1.03,9.74
			c-0.09,1.59-0.16,3.19-0.23,4.78c-0.07,1.64-0.33,3.32-0.13,4.95c0.23,1.87,2.91,1.98,3,0c0.36-7.48,0.39-14.96,0.7-22.44
			c-1,0-2,0-3,0c-0.03,2.82,0.11,5.63,0.28,8.44c0.04,0.6,0.15,1.25,0.09,1.85c-0.05,0.48-0.2,0.93-0.16,1.42
			c0.08,1.02,0.77,1.67,1.7,1.98c0.99,0.33,1.83-0.53,1.9-1.45c0.33-4.3,0.52-8.61,0.69-12.93c0.08-2.12,0.16-4.23,0.24-6.35
			C69.1,4,68.96,1.73,69.29-0.36c-0.98-0.13-1.96-0.27-2.95-0.4c0.16,6.72,0.22,13.44,0.68,20.15c0.13,1.91,3.11,1.94,3,0
			c-0.12-2.16-0.27-4.31-0.38-6.47c-0.09-1.82-0.47-3.78,0.03-5.56c-0.73,0.3-1.47,0.6-2.2,0.9c-0.69-0.34-0.36-0.94-0.42-0.17
			c-0.03,0.34,0.05,0.74,0.07,1.07c0.06,0.83,0.12,1.67,0.16,2.5c0.09,1.86,0.03,3.71,0,5.57c-0.05,3.49-0.44,6.99-0.92,10.44
			c-0.99,7.09-0.83,14.21,0,21.29c0.22,1.89,3.23,1.92,3,0c-0.22-1.86-0.53-3.7-0.61-5.58c-0.08-1.9-0.06-3.81-0.06-5.72
			c-0.01-3.94,0.39-7.78,0.93-11.68c0.51-3.7,0.65-7.48,0.71-11.21c0.03-1.87-0.08-3.74-0.21-5.61c-0.08-1.17,0.13-2.87-1.14-3.49
			c-0.86-0.42-1.93-0.09-2.2,0.9c-0.54,1.94-0.25,3.9-0.16,5.88c0.11,2.32,0.27,4.63,0.4,6.95c1,0,2,0,3,0
			c-0.46-6.71-0.51-13.43-0.68-20.15c-0.04-1.61-2.67-2.13-2.95-0.4c-0.34,2.14-0.27,4.37-0.35,6.54c-0.09,2.2-0.16,4.39-0.25,6.59
			c-0.17,4.47-0.37,8.95-0.71,13.41c0.63-0.48,1.27-0.96,1.9-1.45c0.27,0.77,0.45,0.94,0.54,0.5c0.1-0.17,0.15-0.36,0.16-0.55
			c0.07-0.45-0.03-0.92-0.06-1.37c-0.07-1.02-0.12-2.04-0.17-3.07c-0.11-2.1-0.19-4.21-0.17-6.31c0.02-1.94-2.92-1.92-3,0
			c-0.31,7.48-0.34,14.97-0.7,22.44c1,0,2,0,3,0c-0.18-1.48,0.04-2.97,0.1-4.45c0.07-1.6,0.14-3.2,0.23-4.8
			c0.17-3.15,0.4-6.3,0.95-9.41c-0.96,0-1.93,0-2.89,0c0.36,1.06-0.03,2.31-0.08,3.42c-0.06,1.29-0.1,2.57-0.14,3.86
			c-0.07,2.42-0.12,4.85-0.15,7.27c-0.06,5.03-0.07,10.06-0.3,15.08c1,0,2,0,3,0c-0.63-5.32-0.86-10.71-1.18-16.06
			c-0.32-5.38-0.58-10.76-0.79-16.15c-0.07-1.68-2.45-2.05-2.95-0.4c-0.35,1.16-0.3,2.18-0.21,3.37c0.08,1.09-0.04,2.24-0.08,3.33
			c-0.07,2.38-0.12,4.77-0.18,7.15c-0.11,4.86-0.19,9.71-0.1,14.57c0.04,1.94,2.9,1.92,3,0c0.23-4.45,0.4-8.89,0.58-13.34
			c0.18-4.45,0.53-8.97,0.36-13.42c-0.08-1.94-2.88-1.92-3,0c-0.28,4.47-0.47,8.95-0.65,13.42c-0.09,2.25-0.15,4.49-0.16,6.74
			c-0.01,2.14-0.21,4.3,0.15,6.42c0.29,1.72,2.9,1.23,2.95-0.4c0.16-5.55,0.1-11.11-0.13-16.66c-0.22-5.36-0.17-10.81-0.73-16.14
			c-0.2-1.89-2.92-1.97-3,0c-0.2,4.72-0.5,9.43-0.56,14.16c-0.02,2.25-0.02,4.5,0,6.74c0.03,2.34-0.14,4.56,0.32,6.89
			c0.34,1.76,2.82,1.19,2.95-0.4c0.28-3.62,0.46-7.24,0.62-10.86c0.16-3.6,0.48-7.28,0.26-10.88c-0.1-1.58-2.65-2.16-2.95-0.4
			c-0.4,2.34-0.68,4.7-0.96,7.05c-0.13,1.08-0.25,2.16-0.39,3.24c-0.14,1.02-0.1,2.51-0.66,3.39c0.93,0.25,1.86,0.5,2.8,0.76
			c-0.67-8.43-0.83-16.88-0.46-25.32c-0.63,0.48-1.27,0.96-1.9,1.45c-0.58-0.21-0.35-1.07-0.8-0.38c-0.14,0.22-0.18,0.5-0.2,0.76
			c-0.06,0.61,0.03,1.28,0.04,1.89c0.03,1.34,0.04,2.68,0.05,4.02c0.02,2.68,0.04,5.36,0.05,8.04c0.01,2.62,0.01,5.24,0.01,7.86
			c-0.01,2.7,0.14,5.28-0.35,7.96c0.98,0.13,1.96,0.27,2.95,0.4c-0.21-6.85,0.29-13.69,0.13-20.53c-0.05-1.94-2.91-1.92-3,0
			c-0.12,2.49-0.2,4.98-0.24,7.48c-0.02,1.21-0.04,2.41-0.07,3.62c-0.01,0.6-0.03,1.21-0.05,1.81c-0.01,0.37,0.11,1.12-0.04,1.45
			c0.91,0.12,1.83,0.24,2.74,0.36c-1.49-6.21-2.73-12.77-2.52-19.19c-1,0-2,0-3,0c0.02,2.08,0.13,4.14,0.35,6.21
			c0.2,1.93,0.61,4.05,0.34,5.99c0.91-0.12,1.83-0.24,2.74-0.36c-1.03-1.62-1.61-3.86-2.04-5.71c-0.22-0.96-0.55-1.97-0.53-2.96
			c0-0.16,0.05-0.35,0.04-0.51c-0.03-0.36,0.33-0.53-0.24-0.18c-0.54,0.33-0.05,0.25,0.32,0.31c2.01,0.31,4.1,0.23,6.12,0.05
			c1.91-0.17,3.83-0.46,5.54-1.37c1.61-0.85,2.06-2.98,0.1-3.77c-1.64-0.67-3.92-0.12-5.63-0.08c-2.28,0.06-4.52,0.34-6.77,0.7
			c-1.18,0.19,0.09,0.48,0.36,1.24c0.02,0.06-0.62,0.45,0.02,0.11c0.14-0.07,0.25-0.17,0.39-0.25c0.97-0.53,1.74-0.46,2.82-0.2
			c2.03,0.51,4.27,1.29,6.34,0.6c1.75-0.58,3.53-1.63,3.66-3.65c0.03-0.51-0.31-1.05-0.74-1.3c-1.36-0.75-3-0.53-4.5-0.53
			c-2.04,0-4.13-0.14-6.16,0.03c-0.87,0.07-1.65,0.47-2.5,0.49c-0.97,0.01-1.97-0.16-2.93-0.26c-2.08-0.23-4.16-0.5-6.21-0.93
			c-1.72-0.36-2.52,1.75-1.16,2.74c1.15,0.84,2.61,1.35,3.87,2c0.73,0.37,1.46,0.77,2.17,1.18c0.32,0.18,0.63,0.37,0.95,0.54
			c0.08,0.04,0.16,0.08,0.24,0.12c0.35,0.24,0.35,0.18,0-0.19c0.35-0.62,0.7-1.23,1.05-1.85c-0.32,0.13-0.97-0.21-1.3-0.29
			c-0.6-0.15-1.22-0.25-1.82-0.4c-1.19-0.29-2.23-0.94-3.23-1.62c-0.12,0.91-0.24,1.83-0.36,2.74c0.33-0.1,0.83,0.07,1.18,0.1
			c0.56,0.05,1.13-0.01,1.61,0.3c0.81,0.53,1.59,1.64,2.11,2.44c0.59,0.9,1.33,1.73,1.34,2.84c0.02,1.38,0.08,2.75,0.21,4.12
			c0.24,2.44,0.6,4.94,1.28,7.29c0.74,2.55,1.98,4.89,3.25,7.21c2.2,4,3.64,9.41,8.29,11.35c0.57,0.24,1.92,0.39,2.22,1.01
			c0.14,0.3-0.07,1.05-0.09,1.37c0-0.02-0.04,0.55-0.02,0.56c0.62-0.46,0.66-0.66,0.12-0.61c-0.1-0.01-0.2-0.01-0.31-0.02
			c-0.24,0-0.92,0.14-1.1-0.02c-0.23-0.21-0.18-1.13-0.26-1.43c-0.32-1.18-0.89-2.46-1.51-3.51c-0.72-1.22-1.7-2.26-2.55-3.38
			c-0.8-1.06-1.57-2.14-2.43-3.14c-0.48-0.56-1.04-1.04-1.4-1.69c-0.36-0.62-0.62-1.31-0.87-1.98c-0.53-1.42-0.47-2.95-0.96-4.38
			c-0.3-0.87-1.34-1.45-2.2-0.9c-1.94,1.26-1.37,4.76-1.14,6.69c0.29,2.48,1.26,5.06,2.82,7.03c0.72,0.91,1.56,1.69,2.49,2.37
			c0.91,0.67,1.85,1.2,2.59,2.08c1.8,2.16,2.49,5.23,3.6,7.78c0.79-0.61,1.57-1.21,2.36-1.82c-0.55-0.66-1.27-1.15-1.87-1.77
			c-0.64-0.67-1.11-1.46-1.72-2.15c-1.16-1.3-2.48-2.46-3.75-3.65c-0.65-0.61-1.27-1.23-1.89-1.87c-0.66-0.68-0.88-1.5-1.11-2.41
			c-0.45-1.78-0.98-3.33-1.7-5.01c-1.56-3.63-0.31-7.49-0.27-11.25c0.01-0.97-0.04-1.91-0.18-2.87c-0.14-1,0.02-2-0.17-3
			c-0.31-1.58-0.99-3.3-1.76-4.71c-0.45-0.82-0.95-1.36-1.83-1.72c-0.86-0.35-1.9-0.38-2.69-0.81c-1.64-0.88-2.94-2.48-4.24-3.77
			C43.29,4.28,41.17,6.4,42.55,7.76L42.55,7.76z"/>
	</g>
</g>
<g>
	<g>
		<path d="M34.72,9.42c0.01-0.01-0.63,0.03-0.79,0.07c-0.41,0.1-0.82,0.25-1.15,0.52c-0.24,0.2-0.35,0.51-0.58,0.7
			c-0.31,0.24-0.78,0.34-1.12,0.58c-0.67,0.48-1.34,0.89-2.07,1.3c-0.8,0.45-1.68,0.67-2.5,1.08c-1.32,0.65-2.39,1.74-3.67,2.47
			c-1.48,0.85-3.1,1.72-3.7,3.43c-0.08,0.18-0.13,0.36-0.16,0.56c0.41-0.33,0.5-0.43,0.26-0.29c-0.31,0.13-0.62,0.46-0.8,0.73
			c-0.38,0.57-0.52,1.51-0.49,2.18c0.07,1.29,1.25,2.7,1.98,3.71c0.28,0.39,0.7,0.56,0.93,0.96c0.18,0.31,0.24,0.75,0.36,1.09
			c0.27,0.81,0.61,1.5,1.09,2.2c0.31,0.46,0.48,1.12,0.81,1.7c0.35,0.61,0.88,1.29,1.02,1.97c0.41,1.89,3.3,1.09,2.89-0.8
			c-0.13-0.58-0.51-1.33-0.8-1.87c-0.35-0.66-0.64-1.21-0.93-1.91c-0.22-0.52-0.63-0.86-0.91-1.33c-0.47-0.78-0.49-1.76-0.94-2.56
			c-0.31-0.54-1.01-1.15-1.16-1.35c-0.37-0.45-0.65-1.01-0.99-1.5c-0.18-0.27-0.29-0.41-0.34-0.7c0.06-0.16,0.02-0.15-0.12,0.02
			c0.17-0.12,0.34-0.25,0.5-0.38c0.47-0.5,0.38-1.15,0.72-1.68c0.38-0.59,1.36-1.07,1.97-1.42c0.64-0.37,1.21-0.83,1.84-1.2
			c0.56-0.33,1.02-0.73,1.55-1.11c0.72-0.51,1.63-0.65,2.41-1.02c1.36-0.65,2.58-1.55,3.88-2.26c0.35-0.19,0.62-0.45,0.88-0.74
			c0.1-0.11,0.18-0.24,0.23-0.38c-0.18,0.2-0.19,0.27-0.02,0.21c0.76-0.1,1.45-0.24,2.01-0.82C38.17,10.14,36.06,8.02,34.72,9.42
			L34.72,9.42z"/>
	</g>
</g>
<g>
	<g>
		<path d="M36.96,10.93c0.56,0.02,1.28,0.27,1.83,0.39c0.59,0.12,1.22,0.23,1.72,0.58c0.44,0.32,0.73,0.79,1.16,1.13
			c0.53,0.43,1.06,0.85,1.58,1.3c0.81,0.7,1.51,1.39,2.27,2.16c0.48,0.49,0.91,0.92,1.47,1.32c0.55,0.39,0.74,0.84,0.93,1.49
			c0.18,0.61,0.28,1.27,0.6,1.83c0.07,0.13,0.43,0.82,0.32,0.36c-0.12-0.48-0.07,0.49-0.07,0.58c-0.01,1.25-0.53,2.52-0.8,3.74
			c-0.24,1.1-0.78,2.19-1.41,3.1c-0.66,0.95-1.79,1.32-2.57,2.15c-1.33,1.4,0.79,3.53,2.12,2.12c0.96-1.01,2.21-1.5,3.03-2.7
			c0.78-1.14,1.46-2.56,1.74-3.92c0.31-1.5,0.89-2.93,0.9-4.48c0.01-0.87-0.07-1.43-0.47-2.2c-0.31-0.6-0.42-1.25-0.66-1.9
			c-0.25-0.68-0.56-1.4-1.06-1.93c-0.55-0.57-1.25-0.96-1.8-1.54c-0.95-0.98-1.89-1.87-2.92-2.76c-0.56-0.48-1.16-0.88-1.66-1.42
			C42.69,9.8,42.15,9.33,41.48,9c-0.65-0.32-1.39-0.48-2.1-0.62c-0.79-0.15-1.62-0.41-2.42-0.45C35.03,7.85,35.03,10.85,36.96,10.93
			L36.96,10.93z"/>
	</g>
</g>
<g>
	<g>
		<path d="M47.77,31.37c0.71,0.68,0.8,2.04,1.12,2.95c0.45,1.25,0.99,2.49,1.35,3.77c0.36,1.32,0.69,2.6,1.46,3.75
			c0.64,0.96,0.96,2.08,1.62,3.01c0.31,0.44,0.58,0.74,0.79,1.25c0.26,0.63,0.57,1.25,0.92,1.84c0.67,1.13,1.64,1.77,2.46,2.74
			c0.81,0.97,1.68,1.79,2.59,2.66c0.44,0.43,0.77,1.04,1.29,1.37c0.13,0.08,0.39,0.21,0.54,0.23c0.36,0.05,0.22,0.38,0.04-0.23
			c0.05-0.39,0.1-0.77,0.15-1.16c0.38-0.56,0.11-0.28-0.41-0.12c-0.57,0.18-1.02,0.36-1.47,0.75c-0.87,0.74-1.24,1.81-2.04,2.62
			c-0.81,0.82-1.87,1.05-2.82,1.64c-0.45,0.27-0.92,0.84-1.4,1.03c-0.5,0.2-1.33,0.11-1.86,0.12c-1.93,0.05-1.93,3.05,0,3
			c0.77-0.02,1.59-0.03,2.36-0.18c0.83-0.16,1.34-0.62,2-1.11c1.22-0.9,2.64-1.26,3.79-2.32c0.59-0.54,1.09-1.2,1.49-1.88
			c0.35-0.6,0.54-0.69,1.19-0.9c1.21-0.37,2.45-1.23,1.8-2.67c-0.26-0.57-0.8-0.98-1.35-1.25c-0.15-0.07-0.3-0.12-0.45-0.19
			c-0.22-0.1-0.13-0.12-0.04,0c0.28,0.34-0.06-0.23-0.07-0.26c-0.15-0.23-0.4-0.43-0.6-0.62c-1.23-1.15-2.29-2.47-3.55-3.57
			c-1.29-1.13-1.47-2.81-2.49-4.07c-0.48-0.59-0.69-1.18-1-1.87c-0.34-0.73-0.88-1.32-1.25-2.03c-0.49-0.93-0.62-2.01-0.94-3
			c-0.3-0.93-0.62-1.89-1-2.78c-0.68-1.58-0.76-3.43-2.07-4.67C48.49,27.92,46.36,30.03,47.77,31.37L47.77,31.37z"/>
	</g>
</g>
<g>
	<g>
		<path d="M53.66,61.84c0.22,0.31,0.16,0.6,0.25,0.96c0.09,0.39,0.33,0.72,0.42,1.1c0.06,0.26,0.14,2.7,0.05,2.73
			c0.08-0.16,0.16-0.32,0.25-0.48c-0.22,0.05-0.45,0.08-0.68,0.1c-0.33,0.05-0.66,0.08-0.99,0.12c-0.76,0.1-1.52,0.22-2.28,0.34
			c-3.31,0.55-6.63,1.06-9.96,1.4c-1.7,0.17-3.4,0.47-5.1,0.62c-1.05,0.09-2.12,0.05-3.17,0.03c-1.03-0.02-2.12,0.07-3.14-0.08
			c-1.48-0.21-2.92-0.48-4.33-0.95c-1.58-0.52-2.99-0.71-4.39-1.68c0.23,0.3,0.46,0.6,0.69,0.9c-0.07,0.33-0.02,0.27,0.13-0.18
			c0.07-0.15,0.13-0.29,0.2-0.44c0.18-0.41,0.36-0.81,0.54-1.21c0.32-0.73,0.52-1.39,0.62-2.18c0.2-1.59,0.06-3.24,0.21-4.83
			c0.14-1.54,0.26-3.17,0.25-4.71c-0.01-1.61-0.68-3.08-0.68-4.69c0-1.93-3-1.93-3,0c0,0.98,0.1,1.82,0.34,2.77
			c0.34,1.32,0.26,2.43,0.19,3.76c-0.1,2.15-0.29,4.29-0.27,6.45c0.01,1.16-0.34,2.08-0.8,3.13c-0.44,1-1.08,2.02-0.56,3.11
			c0.42,0.88,1.67,1.43,2.53,1.8c0.98,0.41,2,0.48,2.99,0.83c4.47,1.56,9.59,1.55,14.24,0.79c1.05-0.17,2.18-0.26,3.24-0.29
			c1.17-0.04,2.26-0.38,3.43-0.47c2.37-0.19,4.63-0.69,6.97-1.02c1.7-0.24,4.9-0.06,5.44-2.16c0.28-1.09,0.18-2.68,0.01-3.79
			c-0.08-0.56-0.34-1.01-0.49-1.54c-0.18-0.66-0.14-1.14-0.57-1.72C55.13,58.78,52.53,60.28,53.66,61.84L53.66,61.84z"/>
	</g>
</g>
<g>
	<g>
		<path d="M21.16,29.38c-0.24,1.19-1.25,2.2-1.95,3.15c-0.9,1.21-1.49,2.5-2.2,3.83c-0.62,1.17-0.99,2.4-1.63,3.55
			c-0.61,1.1-1.49,2.58-1.3,3.88c0.17,1.17,1.2,2.06,2.13,2.7c1.26,0.87,2.41,1.88,3.66,2.77c0.52,0.37,1.01,0.66,1.44,1.12
			c0.36,0.39,0.94,0.72,1.27,1.11c0.32,0.39,0.43,0.93,0.8,1.31c0.49,0.51,1.16,0.9,1.69,1.37c1.43,1.29,3.56-0.82,2.12-2.12
			c-0.46-0.42-0.99-0.78-1.45-1.2c-0.39-0.36-0.5-0.84-0.84-1.26c-0.29-0.35-0.66-0.6-1-0.89c-0.47-0.4-0.8-0.9-1.31-1.26
			c-1.11-0.78-2.25-1.48-3.28-2.37c-0.47-0.4-0.96-0.73-1.45-1.09c-0.21-0.15-0.43-0.45-0.64-0.57c-0.33-0.19-0.16,0-0.12-0.12
			c0.39-1.14,1.16-2.07,1.62-3.16c0.26-0.63,0.39-1.28,0.69-1.89c0.31-0.63,0.67-1.23,0.99-1.85c0.57-1.14,1.16-2.14,2-3.12
			c0.7-0.81,1.44-2.02,1.66-3.09C24.44,28.3,21.55,27.49,21.16,29.38L21.16,29.38z"/>
	</g>
</g>
<g>
	<g>
		<path d="M19.2,18.42c-0.52,0.45-0.75,1.13-0.99,1.75c0.11-0.3-0.11,0.25-0.15,0.37c-0.06,0.18-0.1,0.34-0.13,0.52
			c-0.07,0.42-0.08,0.84-0.08,1.26c0.01,0.71-0.02,1.37,0.25,2.03c0.27,0.68,0.56,1.31,0.97,1.92c0.3,0.45,0.43,0.97,0.78,1.49
			c0.41,0.61,0.79,1.23,1.31,1.77c0.19,0.2,0.4,0.36,0.56,0.58c0.21,0.3,0.4,0.61,0.65,0.88c0.15,0.17,0.32,0.32,0.44,0.5
			c0.1,0.15,0.19,0.3,0.29,0.44c0.08,0.1,0.16,0.2,0.23,0.3c0.18,0.19,0.16,0.1-0.08-0.24c0.15,0.8,1.11,1.25,1.85,1.05
			c0.84-0.23,1.2-1.05,1.05-1.85c-0.07-0.38-0.29-0.66-0.54-0.95c-0.07-0.08-0.24-0.33-0.37-0.52c-0.33-0.46-0.68-0.77-0.97-1.21
			c-0.38-0.57-0.9-0.97-1.31-1.5c-0.15-0.19-0.27-0.41-0.4-0.62c-0.07-0.11-0.14-0.2-0.21-0.31c-0.11-0.17-0.06-0.08-0.11-0.2
			c-0.22-0.58-0.51-1.03-0.83-1.56c-0.13-0.22-0.26-0.45-0.36-0.69c-0.04-0.09-0.2-0.51-0.18-0.43c-0.06-0.31,0-0.69,0-1.01
			c0-0.23-0.01-0.45,0.04-0.67c0.04-0.19,0.18-0.48,0.28-0.73c0.07-0.17,0.03-0.09,0.08-0.18c0.12-0.2-0.19,0.14,0.08-0.1
			c0.61-0.53,0.54-1.58,0-2.12C20.71,17.81,19.82,17.89,19.2,18.42L19.2,18.42z"/>
	</g>
</g>
<g>
	<g>
		<path d="M21.41,20.51c0.79-0.37,1.52-0.87,2.3-1.25c0.24-0.12,0.48-0.21,0.66-0.41c0.34-0.39-0.2,0.13-0.27,0
			c0.1,0.18,0.97-0.32,1.05-0.37c0.38-0.26,0.68-0.62,1.07-0.88c0.33-0.22,0.66-0.4,0.98-0.64c0.72-0.54,1.44-1.05,2.17-1.57
			c0.69-0.48,1.38-0.91,2.04-1.43c0.63-0.5,1.36-0.92,2.08-1.26c0.73-0.34,1.56-0.6,2.36-0.71c0.94-0.14,1.84-0.37,2.8-0.39
			c1.93-0.03,1.93-3.03,0-3c-1.82,0.03-3.84,0.4-5.55,1.04c-1.8,0.67-3.18,1.85-4.78,2.85c-0.78,0.48-1.54,1.01-2.26,1.58
			c-0.69,0.55-1.47,0.97-2.15,1.54c-0.08,0.07-0.16,0.13-0.23,0.2c-0.18,0.12-0.15,0.15,0.09,0.08c0.34-0.04,0.27-0.03-0.19,0.03
			c-0.06,0.02-0.13,0.03-0.19,0.05c-0.36,0.11-0.75,0.48-0.96,0.61c-0.7,0.41-1.71,0.96-2.53,1.35c-0.73,0.34-0.92,1.4-0.54,2.05
			C19.8,20.73,20.67,20.86,21.41,20.51L21.41,20.51z"/>
	</g>
</g>
</svg>
